<svg xmlns="http://www.w3.org/2000/svg" viewBox="0 0 305.82 305.82"><defs><style>.cls-1{fill:#fff;}</style></defs><title>confiance_blanc</title><g id="Calque_3" data-name="Calque 3"><path class="cls-1" d="M249.67,60.72C232,43.09,208.76,39.3,182.38,49.78a125.81,125.81,0,0,0-34.29,21l-.09.09-.39.38C142,65.84,115.84,42.46,85.7,43.31c-16.1.46-30.5,7.82-42.8,21.87-24,27.46-19.3,54.57-11.11,72.47A105.36,105.36,0,0,0,55,169.52c-16.67,19.23-10.74,28.84-9.27,30.68a14,14,0,0,0,9.75,5.48,16.27,16.27,0,0,0,2.11.13c5.63,0,12-2.6,19.07-7.74C64,215.3,69.5,223.71,70.92,225.4a14,14,0,0,0,9.89,5.23c.54.05,1.09.07,1.64.07,6.58,0,14.1-3.62,22.44-10.77-12.76,18.54-6.67,27-5.14,28.63a13.94,13.94,0,0,0,10.12,4.77h.82c4.11,0,8.54-1.47,13.25-4.37-7,13.77-2.3,20.3-1,21.73a13.94,13.94,0,0,0,10.12,4.76c.27,0,.55,0,.82,0,4.34,0,9-1.63,14-4.85a2.13,2.13,0,0,0,.34.33,41.91,41.91,0,0,0,9.89,5.43,24.51,24.51,0,0,0,8.58,1.72,14.79,14.79,0,0,0,10.7-4.25c4.72-4.62,5.73-11.25,2.9-19.18-.24-.67-.5-1.32-.76-1.94.81.26,1.66.5,2.54.71,10.8,2.6,16.33-1.38,19.06-5.18,5.08-7.07,3.11-15.7.4-21.93a35.54,35.54,0,0,0,7.65.92c4,0,8.07-.89,11.1-3.69,3.83-3.53,5.06-9.27,3.69-17.1a40.3,40.3,0,0,0,11.09,1.69,22.41,22.41,0,0,0,9.3-1.68,11.83,11.83,0,0,0,6.34-7.18c4.63-13.87-2.76-22.4-3.08-22.75l-.1-.12-5-5,18.18-23.7.06-.08a69.15,69.15,0,0,0,10.43-27.47C273.57,105.19,271.68,82.74,249.67,60.72Zm-193.34,139a7.84,7.84,0,0,1-5.69-2.94,1.8,1.8,0,0,0-.26-.34c-.44-.68-5.78-9.94,17.2-31.33,12.5-11.64,20-13.12,24-12.31a8.09,8.09,0,0,1,5.6,4.17,2.45,2.45,0,0,0,1.68,1.63,1.81,1.81,0,0,1,.75,1.34c.35,2.16-.59,8.91-16.85,24.88C69.38,198,61,200.24,56.33,199.75Zm25.23,24.92a7.89,7.89,0,0,1-5.77-2.79,1.8,1.8,0,0,0-.26-.34c-.46-.66-6-9.78,16.37-31.77,12.19-12,19.63-13.63,23.71-12.92a8,8,0,0,1,5.71,4,3,3,0,0,0,1.79,1.59,2,2,0,0,1,.67,1.13c.41,1.64.44,8.31-16.16,25.49C94.55,222.61,86.25,225,81.56,224.67Zm28.78,22.67a7.85,7.85,0,0,1-5.89-2.52,1.74,1.74,0,0,0-.28-.32c-.49-.64-6.49-9.49,14.88-32.5,11.62-12.51,19-14.52,23.09-14a8,8,0,0,1,5.88,3.75,3,3,0,0,0,1.86,1.51,1.92,1.92,0,0,1,.73,1.1c.48,1.62.82,8.28-15,26.21C123.23,244.68,115.05,247.48,110.34,247.34Zm23.21,22.14a7.85,7.85,0,0,1-5.89-2.52,1.48,1.48,0,0,0-.28-.33c-.49-.64-6.48-9.49,14.89-32.49,11.62-12.51,19-14.52,23.08-14a8.1,8.1,0,0,1,5.89,3.75,3,3,0,0,0,1.86,1.52,1.91,1.91,0,0,1,.73,1.09c.48,1.62.82,8.28-15,26.21C146.44,266.82,138.23,269.63,133.55,269.48Zm39.68.09c-6.21,6.07-17-.39-20.29-2.64a92.19,92.19,0,0,0,10.43-10.26c2.61-3,4.89-5.74,6.88-8.36h0a35.48,35.48,0,0,1,4.43,8.37C176.69,262.34,176.2,266.67,173.23,269.57Zm70-89c.54.67,5.2,6.77,1.84,16.84a5.9,5.9,0,0,1-3.23,3.66c-5.26,2.53-14.81.15-18.74-1.19l-34.35-32.59a3,3,0,0,0-4.13,4.35l32.25,30.59c2.48,8.42,2.29,14.28-.59,16.94-4.25,3.92-14.15,1.4-18.22-.1l-32.37-29.78a3,3,0,0,0-4.06,4.42l30.61,28.16c1.23,1.75,9.91,14.79,4.08,22.91-6,8.35-22-.75-22.14-.85a2.75,2.75,0,0,0-.59-.25c5.38-8.08,7.37-14.32,6-18.89a7.68,7.68,0,0,0-3.61-4.63,14.19,14.19,0,0,0-9.7-6c-4.1-.56-8.59.56-13.43,3.31,3.49-6.16,4.65-11.09,3.52-14.87a7.68,7.68,0,0,0-3.61-4.63,14.16,14.16,0,0,0-9.7-5.95c-5.74-.78-12.25,1.73-19.44,7.44,5.1-7.23,7.08-13,6-17.35a7.68,7.68,0,0,0-3.4-4.79,14.14,14.14,0,0,0-9.41-6.4c-5.36-1-11.53.91-18.43,5.6,5.76-7.5,8.11-13.47,7.11-18.06a7.6,7.6,0,0,0-3.28-4.87A14.14,14.14,0,0,0,93,147c-7.94-1.67-17.86,3-29.47,13.77-1.61,1.5-3.09,2.95-4.47,4.36a100.53,100.53,0,0,1-21.77-30c-10.85-23.7-7.43-45.92,10.17-66C58.56,56.4,71.49,49.73,85.85,49.31c27.24-.81,52.12,21.06,57.47,26.1L91.77,126a3,3,0,0,0-.5,3.62c.39.7,9.92,17,29.93,19.59,18.43,2.36,39.11-7.7,61.47-29.92ZM265.38,119a64.4,64.4,0,0,1-9.4,25.11l-17.64,23-53.53-54.24a3,3,0,0,0-2.13-.89h0a3,3,0,0,0-2.14.9c-21.76,22.28-41.44,32.49-58.48,30.35-13.28-1.67-21.34-10.75-24.29-14.74l54.39-53.33A122.06,122.06,0,0,1,184.73,55.3C209,45.71,229.42,49,245.43,65,261.61,81.14,268.32,99.32,265.38,119Z"/></g></svg>