<svg xmlns="http://www.w3.org/2000/svg" viewBox="0 0 305.82 305.82"><defs><style>.cls-1{fill:#fff;}</style></defs><title>expertise_blanc</title><g id="Calque_2" data-name="Calque 2"><path class="cls-1" d="M165.58,184h-15.4a3.07,3.07,0,0,1-3.08-3.07v-98l-16.3,8.8a3.07,3.07,0,0,1-4.44-1.94l-3.09-12.15a3.08,3.08,0,0,1,1.53-3.46L150.54,60.4A3.14,3.14,0,0,1,152,60h13.59a3.07,3.07,0,0,1,3.07,3.07v117.8A3.06,3.06,0,0,1,165.58,184Zm-12.33-6.14h9.26V66.19h-9.75L129.82,78.46l1.52,6,17-9.18a3.1,3.1,0,0,1,1.46-.37h.37A3.08,3.08,0,0,1,153.25,78Z"/><path class="cls-1" d="M292.18,151v-.24l0-.24a2,2,0,0,0,0-.24,1.42,1.42,0,0,0-.07-.22l-.09-.23-.12-.2a2.39,2.39,0,0,0-.13-.21l-.15-.18-.17-.18-.18-.14-.21-.15-.2-.1-.25-.11-.07,0a32.71,32.71,0,0,0-8.85-1.63,25,25,0,0,0,3.29-4.73c3.27-6.15,3.56-13.28.85-21.18a.15.15,0,0,0,0-.07c0-.08-.07-.15-.1-.23l-.13-.23a.83.83,0,0,0-.12-.16,2,2,0,0,0-.18-.23l-.12-.1a1.64,1.64,0,0,0-.25-.21l-.12-.07-.3-.17-.13,0-.32-.1-.17,0c-.1,0-.2,0-.3,0h-.21l-.28,0h-.08a36.11,36.11,0,0,0-4.13,1.08,24.64,24.64,0,0,0,3.2-6.6c2-6.51.86-13.34-3.35-20.31a2.5,2.5,0,0,0-2.33-1.2,2.63,2.63,0,0,0-1.16.19,35.76,35.76,0,0,0-5.64,3,27.56,27.56,0,0,0,3.31-11.87c.22-7-2.66-13.5-8.58-19.38l-.06-.05a1.57,1.57,0,0,0-.21-.17,1.33,1.33,0,0,0-.19-.14l-.22-.11-.22-.1-.22-.07-.25,0a1.46,1.46,0,0,0-.22,0h-.25l-.23,0-.25,0-.21.07a1.84,1.84,0,0,0-.25.09l-.2.1A1.82,1.82,0,0,0,261,64l-.07,0A29.58,29.58,0,0,0,252.28,74a27.34,27.34,0,0,0-5.63-10.25c-4.67-5.18-11.27-7.89-19.62-8h-.25a2.36,2.36,0,0,0-1.91,1.15l0,0c-.07.12-.13.25-.19.38s0,.1,0,.14-.07.21-.09.32,0,.05,0,.07C223.21,66,224.71,73,229,78.53a24.4,24.4,0,0,0,3.15,3.33,36.74,36.74,0,0,0-4.22.7l-.07,0a1.06,1.06,0,0,0-.25.09l-.22.08a1.07,1.07,0,0,0-.21.13L227,83l-.17.15a1.53,1.53,0,0,0-.18.18,1.15,1.15,0,0,0-.14.17c0,.07-.1.14-.14.21s-.07.14-.11.2-.07.16-.1.23l-.06.22-.06.26c0,.07,0,.14,0,.22a2.61,2.61,0,0,0,0,.28v.07c.68,8.33,3.8,14.75,9.28,19.08a21.27,21.27,0,0,0,1.87,1.33,2.09,2.09,0,0,0-.08.23l0,.07c-2.09,8.09-1.25,15.18,2.49,21.07a25,25,0,0,0,4,4.85l0,0a1.32,1.32,0,0,0-.2.12,1.49,1.49,0,0,0-.2.15l-.18.16-.16.18-.15.21-.05.06c-4.34,7.14-5.6,14.17-3.72,20.89a24.67,24.67,0,0,0,2.07,5.09c-.72-.46-1.47-.91-2.26-1.33l-.07,0-.25-.11-.21-.07-.26,0-.22,0h-.48l-.25.05-.22,0-.23.1-.21.09-.2.14-.2.14-.17.16-.18.2,0,.06c-4.94,6.69-6.82,13.55-5.58,20.39a35.15,35.15,0,0,0-3.46-2.8l-.06,0-.23-.13-.22-.11-.23-.08-.23-.06-.24,0H225a1,1,0,0,0-.24,0,1.6,1.6,0,0,0-.23,0l-.25.07-.21.06-.23.11-.21.12-.18.14-.21.18s0,0-.05.05c-4.39,4.6-7,9.53-7.83,14.7l-.09,0a2.18,2.18,0,0,0-.23-.09,1.8,1.8,0,0,0-.22-.06l-.24-.05h-.48l-.23,0-.26,0-.2.08-.26.1-.07,0c-7.37,3.93-12,9.35-13.83,16.09,0,.09-.05.18-.07.26-7.92.86-14,4-18.2,9.29-6,7.61-6.12,17.53-5.84,22a39.9,39.9,0,0,0-9.54,4.19c0-.51.06-1,.06-1.55,0-7-3-13.42-9.09-19.15l-.06-.05-.21-.16-.19-.13-.23-.11a1.45,1.45,0,0,0-.22-.09l-.23-.07-.23,0a1,1,0,0,0-.25,0h-.23a1,1,0,0,0-.24,0l-.23,0-.23.07-.23.09-.21.12-.22.14-.07,0c-6.52,5.22-10.1,11.39-10.63,18.35a23.75,23.75,0,0,0,0,2.66,40.23,40.23,0,0,0-9.84-4.37c.29-4.45.12-14.37-5.84-22-4.15-5.31-10.28-8.43-18.2-9.29,0-.08,0-.17-.07-.26-1.8-6.74-6.46-12.16-13.83-16.09l-.07,0-.25-.1-.21-.08-.26,0a.91.91,0,0,0-.23,0h-.48l-.24.05a1.8,1.8,0,0,0-.22.06,1.57,1.57,0,0,0-.23.09l-.09,0c-.82-5.17-3.44-10.1-7.83-14.7l0-.05-.21-.18-.18-.14-.22-.12-.22-.11-.22-.07-.24-.06a1.6,1.6,0,0,0-.23,0,1,1,0,0,0-.24,0h-.24l-.24,0-.23.06-.24.08-.2.1-.24.14-.06,0a36.37,36.37,0,0,0-3.46,2.8c1.24-6.84-.64-13.7-5.58-20.39l0-.06-.18-.2-.17-.16-.2-.14-.2-.14-.21-.1-.23-.09-.23,0-.24-.05h-.47l-.25,0-.23,0-.23.08-.24.1-.07,0c-.79.42-1.53.87-2.26,1.33A24.45,24.45,0,0,0,69,153.62c1.87-6.72.62-13.75-3.72-20.89l0-.06c0-.07-.1-.14-.15-.21l-.16-.18-.18-.16a1.49,1.49,0,0,0-.2-.15.72.72,0,0,0-.19-.11l0,0a25,25,0,0,0,4-4.85c3.74-5.89,4.58-13,2.49-21.07l0-.07a1.55,1.55,0,0,0-.08-.23,21.27,21.27,0,0,0,1.87-1.33c5.48-4.33,8.6-10.75,9.28-19.08v-.07a1.29,1.29,0,0,0,0-.28,1.55,1.55,0,0,0,0-.22l-.06-.26-.06-.22-.1-.22-.11-.21a1.43,1.43,0,0,0-.14-.2.86.86,0,0,0-.14-.18,1.53,1.53,0,0,0-.18-.18L80.94,83l-.21-.13a1.07,1.07,0,0,0-.21-.13l-.22-.08a1.06,1.06,0,0,0-.25-.09l-.07,0a36.74,36.74,0,0,0-4.22-.7,25,25,0,0,0,3.15-3.33C83.2,73,84.7,66,83.39,57.79c0,0,0,0,0-.07a2.76,2.76,0,0,0-.08-.27,1.72,1.72,0,0,0-.07-.21,1.47,1.47,0,0,0-.1-.22L83,56.81a1.24,1.24,0,0,0-.14-.18,1.56,1.56,0,0,0-.16-.2l-.16-.14c-.07,0-.13-.11-.21-.16L82.16,56l-.23-.13-.2-.07-.26-.08-.21,0-.28,0h-.1c-8.35.16-14.95,2.87-19.61,8A27.23,27.23,0,0,0,55.63,74,29.58,29.58,0,0,0,47,64.07l-.07,0a1.82,1.82,0,0,0-.23-.15l-.2-.1-.24-.09L46,63.62l-.24,0-.24,0h-.24a2,2,0,0,0-.24,0l-.23,0-.23.07-.22.1-.22.11a1.33,1.33,0,0,0-.19.14,1.57,1.57,0,0,0-.21.17l-.06.05c-5.91,5.88-8.8,12.41-8.58,19.38a27.56,27.56,0,0,0,3.31,11.87,35.76,35.76,0,0,0-5.64-3,2.63,2.63,0,0,0-1.16-.19,2.5,2.5,0,0,0-2.33,1.2c-4.21,7-5.34,13.8-3.35,20.31a24.64,24.64,0,0,0,3.2,6.6A36.11,36.11,0,0,0,25,119.38h-.08l-.29,0h-.2c-.1,0-.2,0-.3,0l-.18,0-.28.09-.17.07-.26.14-.16.1-.21.17-.16.14-.16.2a1.33,1.33,0,0,0-.14.19,2.12,2.12,0,0,0-.11.21,2.56,2.56,0,0,0-.11.24.15.15,0,0,0,0,.07c-2.71,7.9-2.42,15,.85,21.18a25,25,0,0,0,3.29,4.73,32.71,32.71,0,0,0-8.85,1.63l-.07,0-.25.11-.2.1-.21.15-.18.14-.17.18-.15.18a2.39,2.39,0,0,0-.13.21l-.12.2-.09.23a1.42,1.42,0,0,0-.07.22c0,.08,0,.16-.05.24l0,.24V151c0,.09,0,.17,0,.26s0,.05,0,.08c1.44,8.22,5.13,14.33,11,18.14.6.39,1.2.74,1.82,1.07-1,.23-2,.51-3.05.84l-.07,0-.25.11-.2.11a1.1,1.1,0,0,0-.21.14l-.19.15c-.06,0-.11.12-.17.18l-.15.17a2.39,2.39,0,0,0-.13.21,2,2,0,0,0-.11.2,2.44,2.44,0,0,0-.1.24l-.07.21c0,.08,0,.16-.05.25l0,.23a2.09,2.09,0,0,0,0,.25,1.06,1.06,0,0,0,0,.25v.08c1.44,8.23,5.13,14.34,11,18.16a25.69,25.69,0,0,0,8.14,3.45c-.87.36-1.75.76-2.63,1.21l-.06,0a1.64,1.64,0,0,0-.22.14l-.2.14c-.06,0-.11.11-.17.17l-.17.18a2.14,2.14,0,0,0-.13.19l-.13.21a1.89,1.89,0,0,0-.09.21,2.18,2.18,0,0,0-.09.23,2,2,0,0,0-.05.24,1.57,1.57,0,0,0,0,.23,1.93,1.93,0,0,0,0,.24,2.09,2.09,0,0,0,0,.25,1.85,1.85,0,0,0,0,.23A1.22,1.22,0,0,0,39,200s0,.05,0,.08c2.69,7.9,7.29,13.36,13.66,16.23a25.71,25.71,0,0,0,7.52,2,36.44,36.44,0,0,0-4,3l0,.06c-.07.06-.12.13-.18.19a1.39,1.39,0,0,0-.15.19,1.37,1.37,0,0,0-.13.2l-.11.22a.9.9,0,0,0-.08.21,1.83,1.83,0,0,0-.08.25c0,.07,0,.14,0,.22a2,2,0,0,0,0,.25,1.76,1.76,0,0,0,0,.23c0,.08,0,.16,0,.25a1.42,1.42,0,0,1,.05.22c0,.08,0,.17.08.25a1.67,1.67,0,0,0,.08.2l.14.25,0,.07c4.58,7,10.39,11.13,17.26,12.33a24.12,24.12,0,0,0,4.19.36,23.8,23.8,0,0,0,2.4-.13,35.54,35.54,0,0,0-3.81,4.88l0,.07a1.34,1.34,0,0,0-.12.24,2,2,0,0,0-.1.21,2.17,2.17,0,0,0-.07.24,2,2,0,0,0,0,.24c0,.07,0,.15,0,.23a2.08,2.08,0,0,0,0,.25,2,2,0,0,0,0,.23,2,2,0,0,0,0,.24l.07.22a1.57,1.57,0,0,0,.09.23,2.12,2.12,0,0,0,.11.21,2.39,2.39,0,0,0,.13.21l.15.18.18.19.06.06c5.57,4.86,11.47,7.31,17.57,7.31a23.52,23.52,0,0,0,2.37-.13,25.35,25.35,0,0,0,6.59-1.62h0a1.79,1.79,0,0,0,0,.23c0,.09,0,.17,0,.25l0,.23a2,2,0,0,0,0,.24c0,.08,0,.15.07.23a2,2,0,0,0,.09.22,1.39,1.39,0,0,0,.11.21,1.59,1.59,0,0,0,.13.22l.15.18.18.19,0,.06c5.59,4.86,11.49,7.31,17.6,7.31q1.17,0,2.37-.12c9.72-1,17-7.9,20-11.14a38.61,38.61,0,0,0,7.79,14.18h0a1.86,1.86,0,0,0,.26.23l.14.12.28.16a.91.91,0,0,0,.17.09,1.7,1.7,0,0,0,.32.1l.16.05a2.21,2.21,0,0,0,.51.05,2.28,2.28,0,0,0,.45,0l.13,0c.1,0,.21-.05.31-.09l.14-.07a1.83,1.83,0,0,0,.28-.14l.14-.1c.08-.06.16-.11.24-.18h0a38.26,38.26,0,0,0,9.26-14.37c2.92,3.23,10.25,10.17,20,11.18a23.66,23.66,0,0,0,2.37.12c6.11,0,12-2.45,17.6-7.31l0-.06c.07-.06.12-.13.18-.19l.15-.18a1.59,1.59,0,0,0,.13-.22,1.39,1.39,0,0,0,.11-.21,2,2,0,0,0,.09-.22c0-.08.05-.15.07-.23a2,2,0,0,0,0-.24l0-.23c0-.08,0-.16,0-.25a1.79,1.79,0,0,0,0-.23h0a25.35,25.35,0,0,0,6.59,1.62,23.52,23.52,0,0,0,2.37.13c6.1,0,12-2.45,17.57-7.31l.06-.06.18-.19.15-.18a2.39,2.39,0,0,0,.13-.21,2.12,2.12,0,0,0,.11-.21,1.57,1.57,0,0,0,.09-.23l.07-.22a2,2,0,0,0,0-.24,2,2,0,0,0,0-.23,2.08,2.08,0,0,0,0-.25c0-.08,0-.16,0-.23a2,2,0,0,0,0-.24,2.17,2.17,0,0,0-.07-.24,2,2,0,0,0-.1-.21,1.34,1.34,0,0,0-.12-.24l0-.07a35.54,35.54,0,0,0-3.81-4.88,23.8,23.8,0,0,0,2.4.13,24.12,24.12,0,0,0,4.19-.36c6.87-1.2,12.68-5.35,17.26-12.33l0-.07a1.57,1.57,0,0,0,.14-.25,1.67,1.67,0,0,0,.08-.2,2.41,2.41,0,0,0,.08-.25,1.42,1.42,0,0,1,.05-.22c0-.09,0-.17,0-.25a1.76,1.76,0,0,0,0-.23,2,2,0,0,0,0-.25c0-.08,0-.15,0-.22a1.83,1.83,0,0,0-.08-.25,1.72,1.72,0,0,0-.07-.21l-.12-.22a1.37,1.37,0,0,0-.13-.2,1.39,1.39,0,0,0-.15-.19c-.06-.06-.11-.13-.18-.19l0-.06a36.44,36.44,0,0,0-4-3,25.71,25.71,0,0,0,7.52-2c6.37-2.87,11-8.33,13.67-16.23,0,0,0-.05,0-.08a1.22,1.22,0,0,0,.06-.26,1.85,1.85,0,0,0,0-.23,2.09,2.09,0,0,0,0-.25,1.93,1.93,0,0,0,0-.24,1.57,1.57,0,0,0,0-.23,2,2,0,0,0-.05-.24,2.18,2.18,0,0,0-.09-.23,1.89,1.89,0,0,0-.09-.21l-.13-.21a2.14,2.14,0,0,0-.13-.19l-.17-.18c-.06-.06-.11-.12-.17-.17l-.2-.14a1.64,1.64,0,0,0-.22-.14l-.06,0c-.88-.45-1.76-.85-2.63-1.21a25.69,25.69,0,0,0,8.14-3.45c5.85-3.82,9.54-9.93,11-18.16v-.08a1.06,1.06,0,0,0,0-.25,2.09,2.09,0,0,0,0-.25l0-.23c0-.09,0-.17-.05-.25S284,173,284,173a2.44,2.44,0,0,0-.1-.24,2,2,0,0,0-.11-.2,2.39,2.39,0,0,0-.13-.21l-.15-.17c-.06-.06-.11-.13-.17-.18l-.19-.15a1.1,1.1,0,0,0-.21-.14l-.2-.11-.25-.11-.07,0c-1-.33-2-.61-3.05-.84.62-.33,1.22-.68,1.82-1.07,5.84-3.81,9.53-9.92,11-18.14,0,0,0-.06,0-.08S292.17,151.12,292.18,151Zm-11.68-11.2a23.83,23.83,0,0,1-8.53,8.7,22.74,22.74,0,0,0-2.69,1.27c-.64.36-1.26.74-1.85,1.14-.43.19-.83.36-1.21.51-.56-4-1-11.88,3-18.13,2.62-4.16,6.81-7,12.46-8.52C283.18,130.44,282.79,135.49,280.5,139.83Zm-79.17,87a38,38,0,0,0,1.68,3.51,36.28,36.28,0,0,0-5.11,1.78,23.56,23.56,0,0,0,1.69-2.22A22.19,22.19,0,0,0,201.33,226.84Zm20.37-15a42.17,42.17,0,0,0,3.35,3.87,31.66,31.66,0,0,0-5.74,3,25.16,25.16,0,0,0,2.38-6.79S221.7,211.91,221.7,211.89ZM238,193.44a40,40,0,0,0,4.05,3.72,28.16,28.16,0,0,0-4.12,3.08A25.3,25.3,0,0,0,238,193.44Zm15.14-13.69a25.32,25.32,0,0,0-.78-6.2,22.36,22.36,0,0,0-1.24-3.53,33.32,33.32,0,0,0,3.94,2.51h0a2.46,2.46,0,0,0,.38.14l.18.07c.08,0,.15,0,.22,0l.11.06.2.07.27.1h0a31,31,0,0,0,3.28.57A27.43,27.43,0,0,0,253.18,179.75ZM275.37,98c2.59,5,3.21,9.88,1.84,14.42-2.24,7.37-9.19,12.42-12.9,14.67-1.17-3.72-2.74-11-.13-17.68C266.05,104.53,269.83,100.71,275.37,98Zm-16.69,12.18a27.32,27.32,0,0,0-.65,3.24,22.65,22.65,0,0,0-2.89-3.06C256.69,110.31,257.93,110.22,258.68,110.14Zm1.84,30.25h0a2.38,2.38,0,0,0,.46,0l.37,0a34.89,34.89,0,0,0-.5,6.34.76.76,0,0,1,0-.11,22.73,22.73,0,0,0-4.32-7.35A34.29,34.29,0,0,0,260.52,140.39Zm-14.75-3.09c5.19,2.68,8.67,6.36,10.33,11,2.51,7,.42,14.55-1,18.38-3.37-2.3-9.44-7.29-11.41-14.41C242.38,147.51,243.08,142.49,245.77,137.3Zm9-54.65c.51-4.9,3-9.32,7.42-13.18,3.85,4.4,5.73,9.1,5.59,14-.22,7.41-4.95,13.7-7.68,16.73-.46-.68-1-1.49-1.52-2.44s-.9-1.85-1.44-2.79A24.12,24.12,0,0,1,254.81,82.65ZM229.19,60.81c5.82.51,10.43,2.6,13.72,6.24,5,5.5,5.91,13.3,6,17.39-4-.85-11.49-3.16-16-9C229.92,71.55,228.67,66.64,229.19,60.81ZM231.24,87c5.78-.89,10.76,0,14.81,2.81a22.48,22.48,0,0,1,6.72,7.53c.44.92.89,1.8,1.33,2.59a36.11,36.11,0,0,1,2,5.33c-4.08.12-11.91-.34-17.7-5C234.5,97.29,232.12,92.81,231.24,87Zm10.15,22.33c5.75,1.07,10.14,3.59,13.07,7.52,4.41,6,4.61,13.81,4.35,17.89-3.89-1.23-11.13-4.25-15.09-10.5C241.1,120.12,240.32,115.11,241.39,109.36Zm-3.15,53.56c4.93,3.13,8.07,7.12,9.31,11.86,1.87,7.16-.88,14.53-2.64,18.22-3.15-2.6-8.74-8.1-10.08-15.37C234,172.79,235.1,167.85,238.24,162.92Zm-12.92,18.19c4.5,3.73,7.11,8.07,7.76,12.94,1,7.34-2.68,14.3-4.89,17.74-2.8-3-7.67-9.11-8.08-16.5C219.83,190.38,221.58,185.62,225.32,181.11Zm-11.83,15.15c3.11,5,4.22,9.9,3.3,14.72-1.39,7.27-7,12.74-10.23,15.31a33.5,33.5,0,0,1-3-10.51c0-.7-.06-1.42-.13-2.14a20.43,20.43,0,0,1,.67-5.54C205.35,203.35,208.52,199.37,213.49,196.26Zm-28.56,23.16c3-3.86,7.49-6.26,13.26-7.17.11.68.18,1.34.24,2,0,.5,0,1,.08,1.49a19,19,0,0,1-3,11.36c-4.12,6.14-11.44,9-15.36,10.08C180,233.09,180.36,225.24,184.93,219.42ZM32.54,98c5.54,2.75,9.32,6.57,11.19,11.41,2.61,6.73,1,14-.13,17.69C39.89,124.82,33,119.8,30.71,112.4,29.32,107.86,29.94,103,32.54,98Zm20.27,68.7c-1.43-3.81-3.51-11.36-1-18.35,1.66-4.63,5.14-8.33,10.34-11,2.69,5.19,3.39,10.21,2.08,14.95C62.25,159.38,56.18,164.36,52.81,166.66Zm-5.72-20a.76.76,0,0,1,0,.11,34.89,34.89,0,0,0-.5-6.34l.37,0a2.38,2.38,0,0,0,.46,0h0a34.29,34.29,0,0,0,4-1.11A22.73,22.73,0,0,0,47.09,146.63Zm2.79-33.25a27.32,27.32,0,0,0-.65-3.24c.75.08,2,.17,3.54.18A22.65,22.65,0,0,0,49.88,113.38ZM51.43,173h0l.27-.1.2-.07.11-.06c.07,0,.14,0,.22,0l.16-.06a2.17,2.17,0,0,0,.4-.15h0A33.32,33.32,0,0,0,56.75,170a22.36,22.36,0,0,0-1.24,3.53,25.32,25.32,0,0,0-.78,6.2,27.43,27.43,0,0,0-6.58-6.17A31,31,0,0,0,51.43,173Zm18.51,27.23a28.6,28.6,0,0,0-4.11-3.08,41.14,41.14,0,0,0,4-3.72A25.3,25.3,0,0,0,69.94,200.24Zm16.27,11.65s0,0,0,.06a25.51,25.51,0,0,0,2.38,6.79,31.33,31.33,0,0,0-5.74-3A42.17,42.17,0,0,0,86.21,211.89Zm20.37,15a22.19,22.19,0,0,0,1.74,3.07,23.65,23.65,0,0,0,1.7,2.22,36.88,36.88,0,0,0-5.12-1.78C105.32,229.57,105.94,228.36,106.58,226.84Zm16.4-7.42c4.57,5.82,5,13.68,4.83,17.77-3.91-1.12-11.2-3.92-15.35-10.07a19,19,0,0,1-3.06-11.38c0-.49.06-1,.08-1.49.06-.65.13-1.32.24-2C115.49,213.16,120,215.56,123,219.42Zm-19.15-11.35a20.31,20.31,0,0,1,.66,5.64c-.06.66-.1,1.31-.11,1.95a33.54,33.54,0,0,1-3,10.62c-3.18-2.57-8.83-8-10.22-15.3-.92-4.82.19-9.77,3.3-14.72C99.38,199.37,102.55,203.33,103.83,208.07Zm-16-12.78c-.42,7.39-5.29,13.54-8.09,16.5-2.21-3.42-5.85-10.34-4.89-17.71.64-4.88,3.25-9.23,7.76-13C86.33,185.62,88.08,190.38,87.81,195.29ZM73.08,177.63C71.74,184.9,66.15,190.41,63,193c-1.77-3.67-4.52-11-2.65-18.19,1.24-4.76,4.38-8.75,9.32-11.89C72.81,167.85,74,172.79,73.08,177.63Zm-8.89-53.36c-4,6.26-11.21,9.27-15.1,10.5-.26-4.06-.07-11.89,4.35-17.86,2.92-4,7.32-6.48,13.08-7.55C67.59,115.11,66.81,120.12,64.19,124.27Zm5.37-23.93c-5.79,4.61-13.63,5.07-17.7,5a35.45,35.45,0,0,1,1.88-5.21c.48-.86,1-1.8,1.44-2.81a22.65,22.65,0,0,1,6.65-7.42c4.07-2.77,9-3.71,14.84-2.82C75.79,92.81,73.41,97.29,69.56,100.34ZM65,67.08c3.29-3.66,7.91-5.76,13.74-6.27C79.24,66.64,78,71.55,75,75.43c-4.53,5.85-12,8.16-16,9C59.08,80.37,60,72.59,65,67.08Zm-19.3,2.39c4.4,3.85,6.9,8.27,7.42,13.15a24.22,24.22,0,0,1-2.47,12.53c-.48.85-.9,1.69-1.29,2.51-.56,1-1.1,1.84-1.58,2.55-2.73-3-7.43-9.27-7.67-16.7C39.94,78.59,41.82,73.88,45.68,69.47ZM26.24,124.8c5.65,1.51,9.84,4.36,12.46,8.52,3.94,6.25,3.55,14.09,3,18.13l-1.22-.51c-.59-.4-1.2-.79-1.84-1.14a22.74,22.74,0,0,0-2.69-1.27,23.83,23.83,0,0,1-8.53-8.7C25.12,135.49,24.73,130.44,26.24,124.8Zm-5.08,27.91a21.09,21.09,0,0,1,12.58.36,41.88,41.88,0,0,0,4.31,2.28c5.28,3.79,8.19,9.83,9.5,13.26-4,.5-11.87.77-18.09-3.29C25.34,162.64,22.56,158.39,21.16,152.71Zm8,22.86c5.67-1.4,10.71-.92,15,1.46,6.47,3.58,9.91,10.66,11.36,14.48-4,.5-11.85.76-18.06-3.3C33.39,185.51,30.61,181.26,29.2,175.57Zm15.39,25C50,198.3,55,198,59.65,199.68c6.95,2.53,11.44,9,13.46,12.54-3.92,1.11-11.63,2.57-18.37-.47C50.27,209.72,46.86,206,44.59,200.57ZM74,232c-4.85-.84-9.1-3.64-12.64-8.31,4.65-3.54,9.48-5.09,14.36-4.6,7.38.73,13.33,5.88,16.17,8.81C88.35,230,81.27,233.3,74,232Zm21.81,15.5c-4.9.51-9.73-1-14.4-4.57,3.52-4.67,7.75-7.47,12.59-8.34,7.28-1.3,14.39,2,17.92,4.07C109.08,241.61,103.17,246.75,95.78,247.52Zm27.35,7.84c-4.89.49-9.73-1.05-14.4-4.58,3.53-4.67,7.75-7.47,12.58-8.33a21,21,0,0,1,6.85,0c.86.2,1.4.3,1.51.31h0l.18,0a34.08,34.08,0,0,1,9.39,3.77C136.42,249.47,130.49,254.61,123.13,255.36Zm30.3,2.49c-2.37-3.29-6.36-10-5.79-17.41.38-4.91,2.76-9.4,7.08-13.38,4,4.3,6,9,5.94,13.86C160.64,248.34,156.08,254.74,153.43,257.85Zm31.35-2.49c-7.37-.75-13.3-5.89-16.13-8.82a34,34,0,0,1,9.33-3.77,1.18,1.18,0,0,0,.26,0c.11,0,.7-.11,1.63-.33a20.65,20.65,0,0,1,6.7,0c4.85.85,9.08,3.65,12.61,8.33C194.51,254.31,189.68,255.85,184.78,255.36Zm27.38-7.84c-7.38-.75-13.31-5.91-16.14-8.85,3.52-2,10.6-5.35,17.89-4.06,4.86.85,9.09,3.66,12.62,8.34C221.87,246.48,217,248,212.16,247.52ZM234,232c-7.28,1.28-14.39-2.06-17.92-4.11,2.83-2.93,8.74-8,16.14-8.8,4.89-.5,9.73,1,14.39,4.6C243,228.37,238.81,231.17,234,232Zm19.2-20.27c-6.74,3.05-14.46,1.58-18.38.47,2-3.54,6.48-10,13.45-12.53,4.62-1.7,9.68-1.4,15.08.88C261.05,206,257.65,209.72,253.17,211.75Zm17.25-23.56c-6.18,4.06-14,3.81-18.08,3.32,1.44-3.81,4.85-10.86,11.34-14.47,4.3-2.39,9.35-2.87,15-1.47C277.31,181.25,274.53,185.5,270.42,188.19Zm8.05-22.88c-6.19,4.05-14.06,3.79-18.11,3.29,1.3-3.42,4.2-9.45,9.49-13.25a40.09,40.09,0,0,0,4.32-2.28,21.09,21.09,0,0,1,12.58-.36C285.35,158.38,282.58,162.62,278.47,165.31Z"/></g></svg>