<svg xmlns="http://www.w3.org/2000/svg" viewBox="0 0 305.82 305.82"><defs><style>.cls-1{fill:#272554;}</style></defs><title>innovation_bleu</title><g id="Calque_3" data-name="Calque 3"><path class="cls-1" d="M259.56,114.45l-10.48-6.57c.11-1.41.18-2.83.18-4.24,0-1,0-1.9-.08-2.84L260,94.42a2.51,2.51,0,0,0,1.11-2.93L255.75,75a2.49,2.49,0,0,0-2.55-1.72l-12.32.84a55.44,55.44,0,0,0-4.1-5.78l5-11.53a2.49,2.49,0,0,0-.82-3l-14-10.2a2.51,2.51,0,0,0-3.07.1l-9.47,7.93a53.28,53.28,0,0,0-6.73-2.28l-2.72-12.26a2.48,2.48,0,0,0-2.44-2H185.15A2.48,2.48,0,0,0,182.73,37l-3,12a55.36,55.36,0,0,0-6.78,2.1l-9.4-8.32a2.53,2.53,0,0,0-3.13-.15l-14,10.21a2.51,2.51,0,0,0-.44.42,79.57,79.57,0,0,0-22.19-4h-.23C94.37,50.36,69,66.94,57.36,92.49,47.23,114.66,49.71,138.55,64,156.4c29.24,36.56,25.18,62.75,25.13,63a3,3,0,0,0,.66,2.46,3,3,0,0,0,2.3,1.07h1.64a2.85,2.85,0,0,0,0,.41v9.3l-1.62.06a3,3,0,0,0,.12,6h.13l1.37-.06v4.45l-1.67.1a3,3,0,0,0,.17,6h.18l1.32-.08v3.82h-.12a3,3,0,0,0,.12,6v6a3,3,0,0,0,3,3H151a3,3,0,0,0,3-3v-8.54l1.62-.07a3,3,0,0,0-.25-6l-1.37.06v-4.83l1.67-.09a3,3,0,1,0-.35-6l-1.32.07v-3.38l1.62-.06a3,3,0,0,0-.25-6l-1.37.06v-6.8a2.85,2.85,0,0,0,0-.41h1.24a3,3,0,0,0,3-3.58c0-.07-1.18-6.31,1.13-16.88,2-9.2,7.12-23.53,19.93-40.79l1.89,8.52a2.49,2.49,0,0,0,2.44,2h17.35a2.5,2.5,0,0,0,2.43-1.89l3-12a55.36,55.36,0,0,0,6.78-2.1l9.41,8.32a2.51,2.51,0,0,0,1.65.62,2.47,2.47,0,0,0,1.47-.47l14-10.2a2.5,2.5,0,0,0,.85-3L235.88,140a56.89,56.89,0,0,0,4.24-5.67l12.51,1.2h.24a2.51,2.51,0,0,0,2.38-1.73l5.36-16.5A2.51,2.51,0,0,0,259.56,114.45ZM148,261.91H99.68v-3.24L148,256.62Zm0-11.29-48.29,2v-3.92L148,245.89Zm0-10.74-48.29,2.86v-4.35l48.29-2Zm0-16.54v7l-48.29,2v-9a2.85,2.85,0,0,0,0-.41H148A2.87,2.87,0,0,0,148,223.34Zm3.88-6.41H95.35c.32-8.75-1.57-32.89-26.68-64.28-12.83-16-15-37.6-5.85-57.67,10.7-23.44,34-38.67,60.8-39.76a73,73,0,0,1,23.64,4.88l2.87,7.14a57.41,57.41,0,0,0-4.24,5.68l-12.5-1.21a2.49,2.49,0,0,0-2.62,1.72l-5.36,16.5a2.49,2.49,0,0,0,1,2.89l10.47,6.57c-.1,1.41-.18,2.83-.18,4.25,0,.94,0,1.89.08,2.83L126,112.85a2.51,2.51,0,0,0-1.11,2.93l5.36,16.5a2.5,2.5,0,0,0,2.38,1.73h.17l12.32-.84a59.94,59.94,0,0,0,4.1,5.79l-5,11.52a2.51,2.51,0,0,0,.82,3l14,10.2a2.51,2.51,0,0,0,1.47.48,2.55,2.55,0,0,0,1.61-.58l9.47-7.92c1.17.48,2.36.93,3.56,1.33C153,186.42,151.43,208.57,151.85,216.93Zm99.26-86.54-12-1.16a.66.66,0,0,1-.14,0h-.28l-.28,0-.18,0-.29.1-.17.07-.23.14-.19.12-.17.15-.19.19-.13.17a1,1,0,0,0-.12.16,51.64,51.64,0,0,1-5.59,7.48l-.2.27h0a2.38,2.38,0,0,0-.23.41h0a2.25,2.25,0,0,0-.14.44v0a3,3,0,0,0-.05.42v.07a2.83,2.83,0,0,0,0,.41s0,.06,0,.08a1.82,1.82,0,0,0,.11.4s0,0,0,.06l0,.09s0,0,0,0l4.39,10.93-10.83,7.87-9-8a.78.78,0,0,0-.15-.1l-.18-.14-.25-.13-.18-.08-.27-.09-.2,0-.27,0h-.21l-.28,0-.2,0c-.1,0-.2.06-.3.09l-.12,0a51.37,51.37,0,0,1-8.91,2.77l-.16,0-.24.08-.23.11-.2.11a1.37,1.37,0,0,0-.21.15l-.17.15a.93.93,0,0,0-.16.18.9.9,0,0,0-.15.19,1.37,1.37,0,0,0-.13.2,2.12,2.12,0,0,0-.11.21,2.67,2.67,0,0,0-.09.26l-.06.14-2.9,11.56H185.52l-2.62-11.79a.78.78,0,0,0-.05-.14,2,2,0,0,0-.08-.26,1.39,1.39,0,0,0-.11-.21.94.94,0,0,0-.12-.22l-.14-.19-.16-.18-.17-.16c-.07,0-.13-.11-.2-.15a1.13,1.13,0,0,0-.21-.12l-.21-.11a1.34,1.34,0,0,0-.26-.09l-.14,0-.52-.13a50.48,50.48,0,0,1-8.32-2.87l-.11,0-.32-.11-.18,0-.29,0h-.19a1.51,1.51,0,0,0-.3,0l-.17,0c-.1,0-.2,0-.3.09l-.16.06-.27.14-.17.11-.17.12-9.13,7.64-10.84-7.87,4.76-10.95s0,0,0-.06l0-.07s0,0,0-.05a2.8,2.8,0,0,0,.13-.41s0,0,0-.06a3.34,3.34,0,0,0,0-.43v0a3.42,3.42,0,0,0,0-.46h0a2.53,2.53,0,0,0-.55-1.17,51.25,51.25,0,0,1-5.4-7.62l-.09-.13-.16-.21-.16-.18c-.06,0-.11-.11-.17-.15l-.22-.16-.18-.11-.26-.12-.17-.06a1.73,1.73,0,0,0-.31-.07.86.86,0,0,0-.17,0,1.69,1.69,0,0,0-.32,0h-.13l-11.88.81-4.14-12.74,10.28-6.06h0l.11-.07a.18.18,0,0,0,.07-.05,2.32,2.32,0,0,0,.3-.22l.09-.09a2.16,2.16,0,0,0,.25-.27l.06-.09a1.81,1.81,0,0,0,.2-.33l0-.07a1.64,1.64,0,0,0,.14-.39s0,0,0,0a3,3,0,0,0,.06-.42V108a1.38,1.38,0,0,0,0-.29c-.1-1.34-.16-2.7-.16-4a52.16,52.16,0,0,1,.28-5.31,2.43,2.43,0,0,0,0-.27V98c0-.14,0-.27-.05-.39s0-.06,0-.09a2.65,2.65,0,0,0-.12-.37.36.36,0,0,1,0-.09,2.58,2.58,0,0,0-.18-.32l-.07-.1a3,3,0,0,0-.23-.27l-.1-.1-.28-.22-.08-.06-10.09-6.33,4.13-12.74,12,1.16a.56.56,0,0,1,.13,0h.24l.34-.05.23,0,.35-.14a2.33,2.33,0,0,0,.34-.2l.24-.17a1.34,1.34,0,0,0,.2-.21,2.11,2.11,0,0,0,.19-.23,1.49,1.49,0,0,0,.12-.14,50.86,50.86,0,0,1,5.58-7.48,1.57,1.57,0,0,0,.19-.26l0,0a2.24,2.24,0,0,0,.22-.4v0a2,2,0,0,0,.13-.41.13.13,0,0,0,0-.06,1.75,1.75,0,0,0,0-.4v-.09a2.43,2.43,0,0,0,0-.38s0-.07,0-.11-.07-.25-.11-.37,0,0,0-.08l-.05-.12h0l-3.44-8.53a3,3,0,0,0-.7-2.59l10.58-7.69,9,8A1.7,1.7,0,0,0,171,56l.11.09a2.84,2.84,0,0,0,.59.27l.07,0a2.41,2.41,0,0,0,.6.08h.13a2.58,2.58,0,0,0,.29,0,1.13,1.13,0,0,0,.18,0c.11,0,.21-.06.32-.09l.1,0a51.64,51.64,0,0,1,8.91-2.77l.14,0a1.52,1.52,0,0,0,.28-.09l.19-.09a1.71,1.71,0,0,0,.23-.13,1.33,1.33,0,0,0,.19-.14l.19-.16.15-.17a1.56,1.56,0,0,0,.16-.2,2,2,0,0,0,.12-.19l.12-.22.09-.25s0-.1,0-.15l2.9-11.56h13.4l2.61,11.79.06.19.06.18a3,3,0,0,0,.15.31l.05.09a2,2,0,0,0,.28.37l.06.06a1.55,1.55,0,0,0,.27.24l.14.09a1.28,1.28,0,0,0,.25.15l.16.07a1.42,1.42,0,0,0,.29.1l.09,0a51.11,51.11,0,0,1,8.84,3l.1,0a1.93,1.93,0,0,0,.34.11l.17,0,.32,0h.15a2.59,2.59,0,0,0,.63-.09h0a2.76,2.76,0,0,0,.58-.27l.13-.09.19-.12,9.14-7.65,10.84,7.87-4.76,11,0,.06,0,.07s0,0,0,0a2.16,2.16,0,0,0-.13.41.13.13,0,0,0,0,.06,2.18,2.18,0,0,0-.05.43v0a2.28,2.28,0,0,0,0,.45h0a2.51,2.51,0,0,0,.55,1.18,51.37,51.37,0,0,1,5.4,7.61.86.86,0,0,0,.07.1,4.08,4.08,0,0,0,.25.33l.15.15a2.45,2.45,0,0,0,.41.31l.19.09a2.75,2.75,0,0,0,.36.15l.23,0a2.11,2.11,0,0,0,.35,0l.15,0h.17l11.89-.81,4.14,12.74-10.28,6.06,0,0-.08.05-.06,0a3.43,3.43,0,0,0-.33.24l-.06.06a2.52,2.52,0,0,0-.27.3l-.05.06a3.35,3.35,0,0,0-.21.36s0,0,0,0a3,3,0,0,0-.15.42v0a3.5,3.5,0,0,0-.07.45v0c0,.1,0,.21,0,.32.11,1.33.16,2.69.16,4a50.94,50.94,0,0,1-.27,5.24,1.62,1.62,0,0,1,0,.22v.31a2.47,2.47,0,0,0,1.15,1.91l10.1,6.33Z"/><path class="cls-1" d="M190.93,77.81a26.12,26.12,0,0,0-11.25,2.51,26.47,26.47,0,0,0,11.25,50.42c.55,0,1.09,0,1.63-.05a26.46,26.46,0,0,0-1.63-52.88Zm1.33,47.89c-.44,0-.88,0-1.33,0a21.45,21.45,0,1,1,1.33,0Z"/><path class="cls-1" d="M140.68,272.27H106.57a3,3,0,0,0-2.89,3.83l3.11,10.79a3,3,0,0,0,2.88,2.17h27.14a3,3,0,0,0,2.82-2l3.87-10.78a3,3,0,0,0-2.82-4Zm-6,10.79H111.93l-1.38-4.79h25.87Z"/></g></svg>