<svg xmlns="http://www.w3.org/2000/svg" viewBox="0 0 305.82 305.82"><defs><style>.cls-1{fill:#f9cb5e;}</style></defs><title>instagram_jaune</title><g id="Calque_2" data-name="Calque 2"><path class="cls-1" d="M202.3,272.92H100.6a67.09,67.09,0,0,1-67-67V104.21a67.09,67.09,0,0,1,67-67H202.3a67.09,67.09,0,0,1,67,67v101.7A67.09,67.09,0,0,1,202.3,272.92ZM100.6,46.25a58,58,0,0,0-58,58v101.7a58,58,0,0,0,58,58H202.3a58,58,0,0,0,58-58V104.21a58,58,0,0,0-58-58ZM202,254.6H100.85A49,49,0,0,1,51.9,205.65V104.47a49,49,0,0,1,48.95-49H202a49,49,0,0,1,49,49V205.65A49,49,0,0,1,202,254.6Zm-101.19-190A40,40,0,0,0,61,104.47V205.65a40,40,0,0,0,39.9,39.9H202a40,40,0,0,0,39.9-39.9V104.47A40,40,0,0,0,202,64.56Z"/><path class="cls-1" d="M151.45,219.32a64.26,64.26,0,1,1,64.26-64.26A64.33,64.33,0,0,1,151.45,219.32Zm0-119.47a55.21,55.21,0,1,0,55.21,55.21A55.27,55.27,0,0,0,151.45,99.85Zm0,98.7a43.49,43.49,0,1,1,43.48-43.49A43.54,43.54,0,0,1,151.45,198.55Zm0-77.93a34.44,34.44,0,1,0,34.43,34.44A34.48,34.48,0,0,0,151.45,120.62Z"/><path class="cls-1" d="M213.21,111.26a17.93,17.93,0,1,1,17.93-17.92A17.94,17.94,0,0,1,213.21,111.26Zm0-26.8a8.88,8.88,0,1,0,8.88,8.88A8.88,8.88,0,0,0,213.21,84.46Z"/></g></svg>