<svg xmlns="http://www.w3.org/2000/svg" viewBox="0 0 305.82 305.82"><defs><style>.cls-1{fill:#f9cb5e;}</style></defs><title>interrogation_jaune</title><g id="Calque_3" data-name="Calque 3"><path class="cls-1" d="M153.63,260A108.08,108.08,0,1,1,261.71,151.94,108.2,108.2,0,0,1,153.63,260Zm0-204a95.94,95.94,0,1,0,95.94,95.94A96.05,96.05,0,0,0,153.63,56Z"/><path class="cls-1" d="M151.2,161.27a29,29,0,0,1,5.18-8.08c2-2.19,4.73-4.81,8.07-7.84a66,66,0,0,0,9.26-9.49,15.71,15.71,0,0,0,3-9.64,14.83,14.83,0,0,0-6-12.32q-6-4.62-16.47-4.62-18.36,0-28.08,12.39l-11.45-8.16a43.21,43.21,0,0,1,16.86-13,58.26,58.26,0,0,1,23.77-4.55q17.08,0,27.13,7.46t10,20.46a28.65,28.65,0,0,1-2.12,11.37,29.19,29.19,0,0,1-5.1,8.24q-3,3.28-8,7.84a63.53,63.53,0,0,0-9.49,10.2,18.53,18.53,0,0,0-3,10.82H149.08A27.14,27.14,0,0,1,151.2,161.27ZM149.79,205a10.23,10.23,0,0,1,0-14.27,9.89,9.89,0,0,1,7.29-2.9,9.67,9.67,0,0,1,7.22,2.9,9.85,9.85,0,0,1,2.82,7.14,9.9,9.9,0,0,1-10,10A9.85,9.85,0,0,1,149.79,205Z"/></g></svg>