<svg xmlns="http://www.w3.org/2000/svg" viewBox="0 0 305.82 305.82"><defs><style>.cls-1{fill:#fff;}</style></defs><title>newsletter_blanc</title><g id="Calque_2" data-name="Calque 2"><path class="cls-1" d="M276.27,88c0-.22,0-.42-.06-.63s-.06-.37-.1-.55-.11-.37-.18-.56-.14-.37-.22-.54-.17-.33-.26-.49a6,6,0,0,0-.36-.52,1.82,1.82,0,0,0-.15-.23l-.19-.19a4.67,4.67,0,0,0-.45-.44,4.87,4.87,0,0,0-.42-.35,5.39,5.39,0,0,0-.5-.33c-.16-.09-.32-.18-.49-.26a3.71,3.71,0,0,0-.55-.22,3.27,3.27,0,0,0-.53-.17,5.72,5.72,0,0,0-.57-.11,6,6,0,0,0-.61-.06,2.48,2.48,0,0,0-.27,0H32.53l-.26,0c-.21,0-.43,0-.64.06l-.53.1q-.29.07-.57.18c-.18.07-.35.13-.52.21a5.05,5.05,0,0,0-.51.28,5.66,5.66,0,0,0-.48.31c-.15.11-.29.24-.44.36s-.3.29-.44.44L28,84.5a1.82,1.82,0,0,0-.15.23,5.91,5.91,0,0,0-.35.52,4.67,4.67,0,0,0-.27.49c-.08.17-.15.36-.22.54a4,4,0,0,0-.17.56,4.86,4.86,0,0,0-.11.55c0,.21-.05.41-.06.63a2.3,2.3,0,0,0,0,.26V216a5.94,5.94,0,0,0,5.94,5.94H270.36A5.94,5.94,0,0,0,276.3,216V88.28A2.3,2.3,0,0,0,276.27,88Zm-22.46,6.21L151.45,178.67,49.08,94.23ZM38.48,210.05V100.89L147.66,191a6,6,0,0,0,7.57,0l109.18-90.07V210.05Z"/></g></svg>