<svg xmlns="http://www.w3.org/2000/svg" viewBox="0 0 305.82 305.82"><defs><style>.cls-1{fill:#272554;}</style></defs><title>proximite_bleu</title><g id="Calque_2" data-name="Calque 2"><path class="cls-1" d="M77.6,106.53a4,4,0,0,0,4,4H136c-11.32,9.22-20,25.59-20,38.55a4,4,0,0,0,4,4h66.65a4,4,0,0,0,4-4c0-8.84-4.33-20.1-11.3-29.4a52.53,52.53,0,0,0-8.65-9.15h56a4,4,0,0,0,4-4c0-8.84-4.33-20.1-11.3-29.4A47,47,0,0,0,205.7,64.5a25.12,25.12,0,1,0-24.71,0,40.58,40.58,0,0,0-7.48,5.69,25.11,25.11,0,0,0-39.68-.82,39.74,39.74,0,0,0-6.58-4.86,25.13,25.13,0,1,0-24.69,0C88.88,72.45,77.6,91.73,77.6,106.53Zm104.77,38.54h-58c2.34-14.66,16.57-33.77,29-33.77S180,130.41,182.37,145.07Zm11-119.6a17.18,17.18,0,1,1-17.17,17.18A17.19,17.19,0,0,1,193.35,25.47Zm0,43.32c12.45,0,26.68,19.1,29,33.76H171.48c.11-.11.2-.23.31-.34.36-.4.71-.79,1.05-1.21.16-.19.31-.39.46-.6.3-.38.59-.78.86-1.19.14-.21.29-.42.42-.63.29-.45.56-.92.82-1.4l.28-.5c.33-.64.64-1.31.92-2,.05-.13.09-.27.15-.4.21-.55.41-1.11.59-1.68.07-.23.13-.47.2-.71.13-.48.25-1,.36-1.46.06-.26.11-.52.16-.78.09-.5.16-1,.22-1.53,0-.24.07-.47.09-.71.07-.75.11-1.5.11-2.27s0-1.55-.12-2.32c0-.22-.05-.44-.08-.67-.06-.57-.15-1.14-.26-1.7l-.12-.65c-.17-.74-.35-1.48-.58-2.21C182.64,72,188.4,68.79,193.35,68.79Zm-40-.8a17.18,17.18,0,0,1,15.76,10.34h0a17,17,0,0,1,1.42,6.82,17.12,17.12,0,0,1-11.72,16.28,16.73,16.73,0,0,1-9.65.36,17.14,17.14,0,0,1-13-16.64A16.93,16.93,0,0,1,138,77.42,17.1,17.1,0,0,1,153.35,68ZM114.9,25.47A17.18,17.18,0,1,1,97.72,42.65,17.19,17.19,0,0,1,114.9,25.47Zm0,43.32c4.64,0,9.86,2.7,14.89,7.66a.09.09,0,0,1,0,0c-.23.61-.42,1.23-.6,1.85,0,.16-.08.31-.13.47-.16.61-.3,1.22-.41,1.84a.31.31,0,0,0,0,.08c-.12.65-.2,1.3-.26,2,0,.15,0,.31,0,.47-.06.66-.09,1.32-.09,2s0,1.56.11,2.33c0,.25.07.49.1.74.06.51.13,1,.22,1.53l.18.85c.11.46.22.92.34,1.38.09.28.17.56.26.85s.3.88.47,1.31c.1.27.2.54.31.81.2.45.41.89.62,1.33.12.23.22.46.34.69.29.53.6,1,.92,1.57.08.11.14.23.21.34.41.62.84,1.22,1.3,1.8l.4.47c.34.42.69.82,1.05,1.21l.16.18H85.88C88.22,87.89,102.45,68.79,114.9,68.79Z"/><path class="cls-1" d="M293.74,155a17.87,17.87,0,0,0-10.94-12.68c-5.24-2.13-13.26-2.92-21.65,5.42l-12,11.91c-15.61,15.53-31.75,31.6-47.83,47.17-6.19,6-12.12,8.49-19.19,8.12-8.22-.43-16.55-.47-24.6-.51-3.08,0-6.16,0-9.23-.06l-3.61-.05c-4.64-.06-9.44-.13-14.21,0a1.62,1.62,0,0,0,0-.22v-.52h.19c8.91,0,17.94-.14,26.69-.26l12.14-.17c4,0,7.94,0,11.91,0h1.71A18.81,18.81,0,0,0,193.62,210c5.63-3.71,8.64-7.71,9.21-12.21.53-4.19-1.17-8.49-5.06-12.8-4.16-4.61-9.13-7-14.76-7.12s-11.41-.14-17-.15c-6.76,0-13.76,0-20.61-.25-9.11-.28-18.33-.24-27.26-.2-5.43,0-11,0-16.56,0h-.39A41.41,41.41,0,0,0,78,184.4L60.28,195.9c-10.39,6.73-21.13,13.69-31.63,20.63-1.17.78-2.38,1.5-3.66,2.27-4.07,2.44-8.28,5-11.53,9.22a4,4,0,0,0-.82,2.42v2.43a4,4,0,0,0,1.22,2.86l.22.2c6.28,10.33,12.61,18.33,18.74,26.07,6.31,8,12.28,15.53,18.38,25.6,1.52,2.51,3.72,5.48,7.22,6.14a7.45,7.45,0,0,0,1.4.13c2.9,0,5.47-1.64,7.45-3.15q3.92-3,7.84-6c4.24-3.21,8.48-6.42,12.69-9.67,8.39-6.49,17.37-10.09,26.71-10.7,7.87-.52,15.91-.86,23.68-1.19,5.52-.23,11.22-.47,16.84-.77,5.89-.32,11.79-.58,17.69-.85,7.6-.34,15.46-.69,23.2-1.16,9.6-.57,17.34-4,23-10.25,5.05-5.55,10.07-11.27,14.93-16.81q4.1-4.68,8.22-9.34,6.31-7.12,12.6-14.26c11.32-12.83,23-26.09,34.77-38.91A17.46,17.46,0,0,0,293.74,155Zm-10.15,10.45c-11.8,12.87-23.53,26.17-34.88,39q-6.28,7.11-12.58,14.23c-2.77,3.12-5.51,6.25-8.26,9.38C223,233.63,218,239.33,213,244.83c-4.27,4.7-10,7.21-17.6,7.66s-15.51.81-23.08,1.15c-5.92.27-11.84.54-17.76.85-5.57.3-11.25.54-16.74.77-7.82.33-15.91.67-23.87,1.19-10.94.72-21.39,4.87-31.06,12.35-4.18,3.24-8.4,6.43-12.62,9.63-2.62,2-5.25,4-7.86,6a7.88,7.88,0,0,1-2.55,1.51,7.94,7.94,0,0,1-1.9-2.43c-6.36-10.49-12.76-18.59-19-26.41s-12.21-15.44-18.27-25.41c2.25-2.41,5.2-4.18,8.3-6,1.3-.78,2.64-1.59,4-2.46,10.48-6.93,21.2-13.87,31.57-20.59l17.73-11.51a33.63,33.63,0,0,1,19.21-5.84c5.56.05,11.21,0,16.67,0,8.85,0,18-.08,27,.19,7,.22,14,.23,20.84.25,5.52,0,11.23,0,16.82.15,3.45.08,6.32,1.51,9,4.51,2.27,2.51,3.31,4.69,3.08,6.47-.32,2.54-3.28,5-5.71,6.58a10.75,10.75,0,0,1-6.11,1.83h-1.7c-4,0-8,0-12,.06s-8.12.1-12.17.16c-8.71.13-17.72.26-26.57.26a5,5,0,0,1-.67,0,7.51,7.51,0,0,0-5.53,2c-2,2-1.95,4.66-1.93,6.26v.28c0,1.74,0,4.38,2,6.32a7.4,7.4,0,0,0,5.61,1.82c4.76-.18,9.66-.11,14.4,0l3.63,0c3.09,0,6.19.05,9.28.06,8,0,16.19.07,24.22.5,9.35.5,17.33-2.79,25.14-10.35,16.12-15.61,32.28-31.69,47.9-47.25l12-11.9c5.77-5.73,10.21-4.85,13.05-3.7a10,10,0,0,1,6.19,7.07A9.63,9.63,0,0,1,283.59,165.48Z"/></g></svg>