<svg xmlns="http://www.w3.org/2000/svg" viewBox="0 0 305.82 305.82"><defs><style>.cls-1{fill:#fdc443;}</style></defs><title>chronometre_jaune</title><g id="Calque_2" data-name="Calque 2"><path class="cls-1" d="M243.71,98.66A5.4,5.4,0,1,0,251.35,91L240.69,80.35h0l-9.89-9.89a5.41,5.41,0,0,0-7.64,7.65l6.07,6.07L216.91,96.48a96.7,96.7,0,0,0-60.25-24.4V48.92h15.39a5.41,5.41,0,1,0,0-10.81H130.46a5.41,5.41,0,0,0,0,10.81h15.39V72.23a97.21,97.21,0,1,0,78.75,31.85l12.26-12.26Zm-91.2,156.77a86.33,86.33,0,1,1,86.32-86.32A86.41,86.41,0,0,1,152.51,255.43Z"/><path class="cls-1" d="M195.65,118.33l-35.76,35.76a16.81,16.81,0,1,0,7.65,7.65L203.29,126a5.41,5.41,0,0,0-7.64-7.65Zm-43.14,56.72a5.95,5.95,0,1,1,5.94-5.94A5.95,5.95,0,0,1,152.51,175.05Z"/></g></svg>