<svg id="Calque_1" data-name="Calque 1" xmlns="http://www.w3.org/2000/svg" viewBox="0 0 305.82 305.82"><defs><style>.cls-1{fill:#fff;}</style></defs><title>communaute_blanc</title><path class="cls-1" d="M258,140c-7.65-10.21-16.3-17.74-25-22.06a39.76,39.76,0,1,0-33,0,63.33,63.33,0,0,0-16.59,12.29,39.67,39.67,0,0,0-65.16-1.47A62.22,62.22,0,0,0,103,118a39.77,39.77,0,1,0-33,0c-8.76,4.32-17.41,11.85-25.06,22.06-11.31,15.09-18.34,33.31-18.34,47.56a4.74,4.74,0,0,0,4.74,4.74H127a80,80,0,0,0-18.35,18.09C97.29,225.5,90.26,243.73,90.26,258A4.74,4.74,0,0,0,95,262.71H205.34a4.74,4.74,0,0,0,4.74-4.73c0-14.25-7-32.48-18.34-47.57a80,80,0,0,0-18.35-18.09h98.18a4.74,4.74,0,0,0,4.73-4.74C276.3,173.33,269.28,155.11,258,140ZM186.11,81.81A30.29,30.29,0,1,1,216.4,112.1,30.32,30.32,0,0,1,186.11,81.81Zm-35.94,40.11A30.29,30.29,0,0,1,178,140.16h0a30.22,30.22,0,0,1-18.16,40.73h0a29.5,29.5,0,0,1-17,.64h0a30.18,30.18,0,0,1-19.61-43h0A30.15,30.15,0,0,1,150.17,121.92Zm-94-40.11A30.29,30.29,0,1,1,86.5,112.1,30.32,30.32,0,0,1,56.21,81.81Zm-19.86,101c3-25.23,28.17-59.6,50.15-59.6,8.44,0,17.88,5,26.82,14.09l-.3.78c-.08.23-.17.46-.25.68-.2.54-.38,1.07-.54,1.61,0,.14-.1.29-.14.43-.21.68-.4,1.37-.57,2.06,0,.17-.07.34-.11.51-.12.53-.23,1.05-.33,1.58l-.12.73q-.12.71-.21,1.41c0,.26-.07.51-.09.77-.06.49-.1,1-.13,1.48,0,.22,0,.45,0,.67q-.06,1.08-.06,2.16c0,1,0,2,.12,3,0,.25,0,.5.07.75.09,1,.21,2,.37,2.93v0c.17,1,.38,1.93.62,2.88l.18.7c.25.94.52,1.87.84,2.78v0c.32.91.69,1.81,1.07,2.7l.29.65c.4.87.81,1.72,1.27,2.56v0c.46.85,1,1.67,1.49,2.48l.38.58c.53.78,1.07,1.56,1.65,2.3l0,0c.59.76,1.22,1.49,1.87,2.2l.47.51c.64.69,1.3,1.36,2,2a.12.12,0,0,1,0,.05c.54.5,1.1,1,1.66,1.45Zm164,70.39H100c3-25.22,28.18-59.6,50.15-59.6S197.35,228,200.32,253.24Zm-24.83-70.39.49-.43.6-.52c.57-.51,1.13-1,1.67-1.58l.33-.32c.63-.64,1.23-1.31,1.82-2l.45-.55q.68-.83,1.32-1.68l.41-.57c.52-.73,1-1.48,1.49-2.25.08-.13.16-.26.23-.4.4-.65.77-1.32,1.12-2,.12-.23.24-.46.35-.69.37-.73.72-1.48,1-2.24a1.89,1.89,0,0,1,.11-.25c.34-.84.66-1.7,1-2.56.07-.24.15-.47.22-.71.22-.69.42-1.4.6-2.11.05-.21.11-.42.16-.63q.32-1.34.54-2.7c0-.19.06-.39.08-.58.12-.75.21-1.5.28-2.26l.06-.78c.07-.94.11-1.89.11-2.84s0-2-.12-3c0-.21,0-.41,0-.61-.09-.95-.21-1.89-.36-2.83l-.09-.52c-.16-.88-.34-1.75-.56-2.62a3.59,3.59,0,0,0-.08-.35c-.24-.94-.52-1.86-.83-2.78l-.09-.29c9.36-10.2,19.69-16,28.65-16,22,0,47.18,34.37,50.14,59.6Z"/></svg>