<svg xmlns="http://www.w3.org/2000/svg" viewBox="0 0 305.82 305.82"><defs><style>.cls-1{fill:#272554;}</style></defs><title>exigence_bleu</title><g id="Calque_2" data-name="Calque 2"><path class="cls-1" d="M207.6,295.38H126.68a3,3,0,0,1-3-3v-40a3,3,0,0,1,3-3H207.6a3,3,0,0,1,3,3v40A3,3,0,0,1,207.6,295.38Zm-77.92-6H204.6v-34H129.68Z"/><path class="cls-1" d="M206.68,242.67a4.88,4.88,0,0,1-1-.11h-79a3,3,0,0,1-2.88-3.84c1.68-5.72-2.86-9.34-3.06-9.49a201.37,201.37,0,0,0-19.91-13.38C91.1,210.38,88,196.7,87.35,193.49c-8.28-13-2.21-18.57-1.48-19.17a2.49,2.49,0,0,1,.43-.29c.29-.17,7.17-4,14.26-1.81,4.23,1.3,7.55,4.38,9.88,9.15s5.34,7.49,9,8.16a9.73,9.73,0,0,0,2.58.12V115.52a2.56,2.56,0,0,1,0-.39c.42-3.28,4-9.57,14.38-9.87,10.58-.3,14,6.2,14.34,9.68a2.62,2.62,0,0,1,0,.28v28.83l.46-.35a10.76,10.76,0,0,1,8.52-1.78,12.62,12.62,0,0,1,9.16,6.64l.63-.57c2.6-2.2,6-3,10-2.46a12.16,12.16,0,0,1,8.43,4.84,12.72,12.72,0,0,1,1.63,3,13.76,13.76,0,0,1,8.82-1.84c13.16,1.07,13.64,11.21,13.65,12.37h0v69.22c.11,2.89-.08,6.9-2.81,8.74A4.66,4.66,0,0,1,206.68,242.67Zm.63-5.84Zm-77.12-.27H205.9a12.52,12.52,0,0,0,.2-3.24.45.45,0,0,1,0-.11V163.93a.41.41,0,0,1,0-.11c0-.9-.37-5.65-8.14-6.28-2.6-.21-4.52.26-5.71,1.4a5.53,5.53,0,0,0-1.44,2.72,20.3,20.3,0,0,1-.24,2.49,3,3,0,0,1-5.95-.34,12.6,12.6,0,0,1,.22-2.93c0-2.13-.28-5-1.71-7a6.17,6.17,0,0,0-4.4-2.41c-2.33-.32-4.08,0-5.35,1.11-2,1.66-2.39,4.7-2.47,5.5,0,.12,0,.23,0,.35a3,3,0,0,1-6-.35c0-.07,0-.22,0-.42.08-1.66,0-8.66-6.3-9.84a4.74,4.74,0,0,0-3.88.73c-2.65,1.93-3.82,6.69-4,8.2a3,3,0,0,1-6-.39V115.42c-.13-.68-1.19-4.34-8.18-4.16s-8.35,3.68-8.58,4.56v76.24a3,3,0,0,1-1.89,2.79c-4.55,1.82-14.82,1.9-21-10.85-1.57-3.22-3.68-5.25-6.26-6.05-3.83-1.18-7.87.49-9.13,1.09-.51.8-1.92,4.13,3,11.68a2.8,2.8,0,0,1,.46,1.18c0,.14,2.33,14.07,10.61,18.72a200.51,200.51,0,0,1,20.63,13.86C124.66,224.68,130.41,229.11,130.19,236.56Z"/><path class="cls-1" d="M109.79,96.44a3,3,0,0,1-1.73-.55,3,3,0,0,1-1.13-3.34L116,63.38,90.14,45.66a3,3,0,0,1,1.7-5.48h30.72l10-27.76a3,3,0,0,1,5.68.08l9.1,27.68h30.14a3,3,0,0,1,1.75,5.44L154.62,63.3l9.81,29.19a3,3,0,0,1-4.61,3.38l-24.4-17.79L111.58,95.85A3,3,0,0,1,109.79,96.44Zm-8.27-50.26,19.71,13.5a3,3,0,0,1,1.17,3.37l-7,22.47,18.2-13.58a3,3,0,0,1,3.56,0l18.58,13.54-7.51-22.36a3,3,0,0,1,1.09-3.39l18.85-13.54h-23a3,3,0,0,1-2.85-2.06l-7.06-21.48L127.48,44.2a3,3,0,0,1-2.82,2Z"/></g></svg>