<svg xmlns="http://www.w3.org/2000/svg" viewBox="0 0 305.82 305.82"><defs><style>.cls-1{fill:#fff;}</style></defs><title>facebook_blanc</title><g id="Calque_2" data-name="Calque 2"><path class="cls-1" d="M169.09,275.87H119.94a4.39,4.39,0,0,1-4.39-4.39V169.19h-19a4.4,4.4,0,0,1-4.39-4.39V123a4.39,4.39,0,0,1,4.39-4.38h19V96c0-7.61,1.37-22.24,10.5-34.64C135.49,48.54,150.12,42,169.53,42l36.42.16a4.38,4.38,0,0,1,4.37,4.38V87.11a4.39,4.39,0,0,1-4.39,4.39H179.52c-6,0-6,5.26-6,7v20.19h33.05a4.39,4.39,0,0,1,4.37,4.83l-4.29,41.73a4.39,4.39,0,0,1-4.37,3.94H173.48V271.48A4.39,4.39,0,0,1,169.09,275.87Zm-44.76-8.78H164.7V164.8a4.4,4.4,0,0,1,4.39-4.39h29.19l3.39-32.95H169.09a4.39,4.39,0,0,1-4.39-4.38V98.5c0-11.65,8-15.78,14.82-15.78h22V50.94l-32-.13c-41.92,0-45.18,34.59-45.18,45.2v27a4.38,4.38,0,0,1-4.39,4.39H101v33h19a4.39,4.39,0,0,1,4.39,4.39Z"/></g></svg>