<svg xmlns="http://www.w3.org/2000/svg" viewBox="0 0 305.82 305.82"><defs><style>.cls-1{fill:#fff;}</style></defs><title>fleche-homepage_blanc</title><g id="Calque_3" data-name="Calque 3"><path class="cls-1" d="M152.17,43.2A108.74,108.74,0,1,0,260.9,151.94,108.86,108.86,0,0,0,152.17,43.2Zm0,205.26a96.52,96.52,0,1,1,96.52-96.52A96.63,96.63,0,0,1,152.17,248.46Z"/><path class="cls-1" d="M192.65,130l-40.46,41.8L111,130a6.11,6.11,0,1,0-8.71,8.57l45.56,46.29a6.1,6.1,0,0,0,4.36,1.82h0a6.07,6.07,0,0,0,4.36-1.86l44.82-46.29a6.11,6.11,0,0,0-8.78-8.5Z"/></g></svg>