<svg xmlns="http://www.w3.org/2000/svg" viewBox="0 0 305.82 305.82"><defs><style>.cls-1{fill:#fff;}</style></defs><title>innovation_blanc</title><g id="Calque_3" data-name="Calque 3"><path class="cls-1" d="M257.69,114.41l-10.47-6.57c.1-1.41.17-2.83.17-4.25,0-.94,0-1.89-.08-2.83l10.83-6.38a2.51,2.51,0,0,0,1.11-2.93L253.89,75a2.5,2.5,0,0,0-2.55-1.72L239,74.07a55.78,55.78,0,0,0-4.09-5.78l5-11.53a2.51,2.51,0,0,0-.83-3l-14-10.2a2.51,2.51,0,0,0-3.08.1l-9.47,7.92a55.3,55.3,0,0,0-6.72-2.27L203.08,37a2.5,2.5,0,0,0-2.44-2H183.28A2.5,2.5,0,0,0,180.86,37l-3,12a55.21,55.21,0,0,0-6.77,2.1l-9.41-8.32a2.51,2.51,0,0,0-3.12-.15l-14,10.2a3.07,3.07,0,0,0-.45.43,79.5,79.5,0,0,0-22.18-4h-.24C92.51,50.32,67.16,66.9,55.49,92.44c-10.12,22.18-7.64,46.07,6.63,63.92,29.25,36.55,25.18,62.75,25.14,63a3,3,0,0,0,2.95,3.53h1.64a2.85,2.85,0,0,0,0,.41v9.3l-1.62.06a3,3,0,0,0,.13,6h.12l1.37-.06v4.45l-1.67.1a3,3,0,0,0,.18,6h.18l1.31-.08v3.82h-.12a3,3,0,0,0,.12,6v6a3,3,0,0,0,3,3h54.3a3,3,0,0,0,3-3v-8.54l1.62-.07a3,3,0,0,0-.25-6l-1.37.06v-4.83l1.67-.09a3,3,0,1,0-.35-6l-1.32.07V236.1l1.62-.06a3,3,0,0,0-.25-6l-1.37.06v-6.8a2.85,2.85,0,0,0,0-.41h1.24a3,3,0,0,0,2.94-3.58c0-.07-1.17-6.31,1.14-16.88,2-9.2,7.11-23.53,19.92-40.79l1.89,8.52a2.5,2.5,0,0,0,2.45,2H199a2.5,2.5,0,0,0,2.42-1.89l3-12a55.36,55.36,0,0,0,6.78-2.1l9.4,8.32a2.53,2.53,0,0,0,3.13.15l14-10.2a2.53,2.53,0,0,0,.85-3L234,140a58.57,58.57,0,0,0,4.25-5.67l12.5,1.2H251a2.5,2.5,0,0,0,2.38-1.73l5.36-16.5A2.49,2.49,0,0,0,257.69,114.41ZM146.11,261.87H97.81v-3.24l48.3-2.05Zm0-11.29-48.3,2v-3.91l48.3-2.86Zm0-10.74-48.3,2.86v-4.35l48.3-2Zm0-16.54v7l-48.3,2v-9a2.85,2.85,0,0,0,0-.41h48.38A2.85,2.85,0,0,0,146.11,223.3Zm3.87-6.41H93.48c.32-8.76-1.56-32.89-26.67-64.28C54,136.57,51.79,115,61,94.94,71.66,71.5,95,56.27,121.76,55.18a73,73,0,0,1,23.64,4.88l2.87,7.14A56.89,56.89,0,0,0,144,72.87l-12.51-1.2a2.51,2.51,0,0,0-2.62,1.72l-5.36,16.5a2.51,2.51,0,0,0,1,2.89l10.48,6.57c-.11,1.41-.18,2.83-.18,4.24,0,1,0,1.89.08,2.84l-10.83,6.38a2.51,2.51,0,0,0-1.11,2.93l5.37,16.5a2.49,2.49,0,0,0,2.37,1.73h.17l12.33-.84a55.44,55.44,0,0,0,4.1,5.78l-5,11.53a2.49,2.49,0,0,0,.82,3l14,10.2a2.48,2.48,0,0,0,1.47.48,2.52,2.52,0,0,0,1.6-.58l9.47-7.92c1.17.48,2.36.93,3.57,1.33C151.08,186.37,149.56,208.53,150,216.89Zm99.26-86.54-12-1.16h-.42l-.28,0-.19,0a1.57,1.57,0,0,0-.28.1l-.17.07-.24.13-.19.13-.17.15-.19.19-.12.16-.13.17a50.86,50.86,0,0,1-5.58,7.48,1.71,1.71,0,0,0-.2.27h0a2.32,2.32,0,0,0-.22.41h0a3.59,3.59,0,0,0-.14.43v0a2,2,0,0,0-.05.42s0,.05,0,.07a2.85,2.85,0,0,0,0,.41.22.22,0,0,0,0,.08,2.64,2.64,0,0,0,.12.4.13.13,0,0,0,0,.06l0,.09,0,0,4.39,10.93-10.84,7.87-9-8-.15-.11-.19-.13-.25-.13-.18-.08-.27-.09-.2,0a2.48,2.48,0,0,0-.27,0h-.21l-.27,0-.21,0c-.1,0-.19.06-.29.09l-.13,0a51.37,51.37,0,0,1-8.91,2.77l-.16.05a1.13,1.13,0,0,0-.24.08l-.23.1-.19.11a1.66,1.66,0,0,0-.21.16.8.8,0,0,0-.17.15l-.17.17-.15.19a2.39,2.39,0,0,0-.13.21,2.12,2.12,0,0,1-.11.21l-.09.26c0,.05,0,.09-.05.14l-2.9,11.56h-13.4L181,155.33a.78.78,0,0,1,0-.14,2,2,0,0,0-.09-.26,1,1,0,0,0-.1-.21l-.12-.22-.15-.19a1.37,1.37,0,0,0-.16-.18,1.29,1.29,0,0,0-.17-.16,1.49,1.49,0,0,0-.2-.15.82.82,0,0,0-.2-.12l-.22-.11-.26-.1-.14-.05-.52-.12a51.13,51.13,0,0,1-8.32-2.87l-.11,0-.31-.1-.18,0-.3,0h-.19l-.29,0-.18,0-.29.08-.17.07-.26.14-.18.11-.16.11-9.14,7.65-10.84-7.87,4.76-11,0-.06,0-.07s0,0,0,0a2,2,0,0,0,.13-.41.13.13,0,0,0,0-.06,2.18,2.18,0,0,0,0-.43v-.05a2.28,2.28,0,0,0,0-.45h0a2.51,2.51,0,0,0-.55-1.18,51.9,51.9,0,0,1-5.4-7.61.6.6,0,0,0-.09-.13l-.15-.21-.17-.18-.17-.16-.22-.15-.17-.11-.26-.12-.18-.06-.3-.08-.17,0a1.77,1.77,0,0,0-.32,0h-.13l-11.89.81-4.14-12.74L138.7,110h0l.11-.07.08,0,.3-.22.09-.09a2,2,0,0,0,.24-.27l.07-.09a3.62,3.62,0,0,0,.2-.33l0-.07c.05-.13.1-.25.14-.39s0,0,0,0A3.07,3.07,0,0,0,140,108v-.07a2.81,2.81,0,0,0,0-.29c-.1-1.34-.15-2.7-.15-4a52.11,52.11,0,0,1,.27-5.3,2.43,2.43,0,0,0,0-.27v-.11a1.58,1.58,0,0,0,0-.38.29.29,0,0,0,0-.09,2.29,2.29,0,0,0-.12-.37.36.36,0,0,0,0-.09,2.58,2.58,0,0,0-.18-.32.61.61,0,0,0-.07-.1,1.94,1.94,0,0,0-.23-.27l-.09-.1a3.15,3.15,0,0,0-.29-.22l-.08-.06L128.9,89.58,133,76.84l12,1.16a.57.57,0,0,1,.13,0h.11l.13,0a1.86,1.86,0,0,0,.33,0,.86.86,0,0,0,.23,0,2.09,2.09,0,0,0,.35-.13l.35-.2.23-.17a2.08,2.08,0,0,0,.21-.21,2.11,2.11,0,0,0,.19-.23s.08-.09.11-.14A51.64,51.64,0,0,1,153,69.34a2.48,2.48,0,0,0,.19-.26l0,0a2.93,2.93,0,0,0,.21-.39v0a2.83,2.83,0,0,0,.14-.41.13.13,0,0,1,0-.06,1.75,1.75,0,0,0,0-.4.28.28,0,0,0,0-.09,2.43,2.43,0,0,0,0-.38s0-.08,0-.11a1.58,1.58,0,0,0-.11-.37.24.24,0,0,0,0-.08l-.05-.12h0L150,58.08a3,3,0,0,0-.71-2.6l10.58-7.68,9,8a1.59,1.59,0,0,0,.21.15l.11.08a2.34,2.34,0,0,0,.6.28l.06,0a2.47,2.47,0,0,0,.6.08h.13l.3,0,.17,0a1.7,1.7,0,0,0,.32-.1l.11,0a51.37,51.37,0,0,1,8.91-2.77l.13,0a2.29,2.29,0,0,0,.28-.09l.2-.09.23-.13.18-.14.19-.16a1.29,1.29,0,0,0,.16-.17l.16-.2.12-.2a2.12,2.12,0,0,0,.11-.21c0-.09.06-.17.09-.25a1.31,1.31,0,0,0,.05-.15l2.91-11.56h13.39l2.62,11.79c0,.06,0,.12.06.19s0,.12.05.18a3,3,0,0,0,.16.31l0,.09a3.58,3.58,0,0,0,.28.37l.06.06.27.24.14.09a1.28,1.28,0,0,0,.25.15l.16.07a1.66,1.66,0,0,0,.29.1l.1,0a51,51,0,0,1,8.83,3l.1,0a2.24,2.24,0,0,0,.34.11l.18,0,.31,0H213a2.74,2.74,0,0,0,.63-.09h0a2.58,2.58,0,0,0,.59-.26l.13-.09.18-.13,9.14-7.64,10.84,7.87-4.76,10.95s0,0,0,.06l0,.07s0,0,0,0a2.8,2.8,0,0,0-.13.41s0,0,0,.06a3.34,3.34,0,0,0,0,.43v0a3.42,3.42,0,0,0,0,.46h0a2.61,2.61,0,0,0,.55,1.18,51.37,51.37,0,0,1,5.4,7.61.7.7,0,0,0,.08.1,2,2,0,0,0,.25.32l.15.16a1.9,1.9,0,0,0,.4.3l.19.1a2.39,2.39,0,0,0,.37.15l.22,0a2.23,2.23,0,0,0,.36.05l.14,0h.18l11.88-.81,4.14,12.74-10.28,6.06,0,0-.08,0-.05,0a2,2,0,0,0-.33.24l-.07.06a2.52,2.52,0,0,0-.27.3l0,.06a2.67,2.67,0,0,0-.22.36.08.08,0,0,1,0,0,2.6,2.6,0,0,0-.15.42v0a2.34,2.34,0,0,0-.07.45v0a1.69,1.69,0,0,0,0,.32c.1,1.33.15,2.69.15,4a51.12,51.12,0,0,1-.26,5.25,1.62,1.62,0,0,0,0,.22,1.22,1.22,0,0,0,0,.27v0a2.52,2.52,0,0,0,1.16,1.91l10.09,6.33Z"/><path class="cls-1" d="M189.07,77.77a26.26,26.26,0,0,0-11.26,2.5,26.47,26.47,0,0,0,11.26,50.42c.54,0,1.09,0,1.62,0a26.46,26.46,0,0,0-1.62-52.88Zm1.32,47.89q-.66,0-1.32,0a21.46,21.46,0,0,1-9.13-40.89,21.21,21.21,0,0,1,9.13-2,21.47,21.47,0,0,1,1.32,42.89Z"/><path class="cls-1" d="M138.82,272.23H104.7a3,3,0,0,0-2.88,3.83l3.1,10.78A3,3,0,0,0,107.8,289h27.14a3,3,0,0,0,2.83-2l3.87-10.79a3,3,0,0,0-2.82-4Zm-6,10.79H110.06l-1.37-4.79h25.86Z"/></g></svg>