<svg xmlns="http://www.w3.org/2000/svg" viewBox="0 0 305.82 305.82"><defs><style>.cls-1{fill:#fff;}</style></defs><title>accompagnement_blanc</title><g id="Calque_2" data-name="Calque 2"><path class="cls-1" d="M294.15,82.69C286.44,54.29,267.21,24.27,266.4,23a3,3,0,0,0-5.35.61L236.42,92.43a3,3,0,0,0,3.26,4l10.8-1.59a198.94,198.94,0,0,1-8.42,30.77c-2.35,6.63-5.45,14.46-9.51,23.17L191.67,108c-1.47-1.82-11.44-13.07-25.47-3.13a17.74,17.74,0,0,0-7.08,9.13,3,3,0,0,0-.89-.62c-1.54-.68-6.24-2.76-9,.36-3.22,3.67.35,11.65,4.12,18-.15,8.05-9.7,17.7-14.87,22a18.77,18.77,0,0,0-13.71-.22,15,15,0,0,0-9.21,7.94c-2.84,6.28-.49,13.41.07,14.94l14.49,69.49a3,3,0,0,0,.5,1.14A181.22,181.22,0,0,1,106,251.2a221.16,221.16,0,0,1-55.75-1.41,3,3,0,0,0-1.71.19l-37.08,15.8a3,3,0,0,0-1.83,2.76v7.4a3,3,0,0,0,2.27,2.91,317.25,317.25,0,0,0,63.61,7.67c2.06,0,4.08.06,6.09.06,56.36,0,91.07-16.1,110.44-29.87,30.33-21.58,53.79-52.15,69.71-90.87a266.11,266.11,0,0,0,18.84-77l11.3-2.44a3,3,0,0,0,2.26-3.72ZM164.5,117.2c.38-2.81,2.12-5.33,5.17-7.49a13.83,13.83,0,0,1,8-2.89c5.45,0,8.82,4.23,9.32,4.9q.13.18.3.36l42.49,42.41q-1,2.07-2.11,4.2L221,170.9,196.45,145a3,3,0,0,0-5,3.06l15.73,44.77-7.33,10-31.83-75a3.27,3.27,0,0,0-.43-.72C167.54,127,163.81,122.25,164.5,117.2Zm46.86,69.43-9.61-27.35,16.13,17C215.83,179.68,213.67,183.13,211.36,186.63Zm-31.71,37.45L150,165.1c9.56-7.27,14.75-19,16.84-24.79l28.85,68A99.75,99.75,0,0,1,179.65,224.08Zm-20.29-93.43a3,3,0,0,0-.44-1.41c-2.5-4.11-4.59-8.88-4.92-11.08a11.83,11.83,0,0,1,1.8.66,3,3,0,0,0,2.62-.11,21.63,21.63,0,0,0,4.22,11.74l1.24,2.93a3,3,0,0,0-1.75,2c0,.17-4.48,16-15.25,24.58a21.27,21.27,0,0,0-2.89-3C149.49,152,159.91,141.19,159.36,130.65Zm-37.87,44.24a3,3,0,0,0-.16-.51c0-.06-2.33-6-.26-10.52a9.1,9.1,0,0,1,5.7-4.73,14.5,14.5,0,0,1,4.73-.84,12.66,12.66,0,0,1,7.63,2.62,18.2,18.2,0,0,1,4.38,4.68l29.77,59.2-10.44,6L141.71,194a3,3,0,0,0-5.52,2.2l10,41.66-10.89,3.48Zm31.23,64.3-5.8-24.08,12.21,21.23a2.51,2.51,0,0,0,.27.37c-2.19,1.07-4.39,2.08-6.61,3A3.07,3.07,0,0,0,152.72,239.19ZM277.13,83.46a3,3,0,0,0-2.36,2.74c-.57,9-3.61,41-18.57,77.36-15.48,37.66-38.24,67.35-67.64,88.26-18.65,13.26-52.16,28.76-106.95,28.76-1.92,0-3.87,0-5.84-.06a318.63,318.63,0,0,1-60.14-7v-3l34.44-14.67a226.26,226.26,0,0,0,56.38,1.34c41.73-4.24,74.6-20.34,95.05-46.55q6-7.66,11.13-15.14l.31-.42a1.29,1.29,0,0,0,.09-.16q6-8.64,10.87-16.92a2.9,2.9,0,0,0,.44-.6l.94-1.73c3.32-5.67,6.31-11.19,9-16.51l2-3.66a3,3,0,0,0,.33-1.07c17.2-35.76,20.29-61.29,20.46-62.84a3,3,0,0,0-3.42-3.3l-9.88,1.45,20.84-58.19c5.58,9.41,17,29.93,22.9,49.67Z"/><path class="cls-1" d="M112.06,155.75A31.12,31.12,0,1,0,81,124.64,31.15,31.15,0,0,0,112.06,155.75Zm0-56.23A25.12,25.12,0,1,1,87,124.64,25.15,25.15,0,0,1,112.06,99.52Z"/><path class="cls-1" d="M162.18,103.33a31.11,31.11,0,1,0-31.11-31.11A31.15,31.15,0,0,0,162.18,103.33Zm0-56.22a25.11,25.11,0,1,1-25.11,25.11A25.14,25.14,0,0,1,162.18,47.11Z"/></g></svg>