<svg xmlns="http://www.w3.org/2000/svg" viewBox="0 0 305.82 305.82"><defs><style>.cls-1{fill:#f7cb5d;}</style></defs><title>confiance_jaune</title><g id="Calque_3" data-name="Calque 3"><path class="cls-1" d="M251.35,55.71c-17.64-17.64-40.91-21.42-67.29-11a126,126,0,0,0-34.29,21l-.09.09-.39.37c-5.59-5.35-31.77-28.74-61.91-27.88-16.1.46-30.5,7.82-42.8,21.87-24,27.46-19.3,54.57-11.11,72.47a105.5,105.5,0,0,0,23.16,31.87C40,183.74,45.89,193.35,47.36,195.19a14,14,0,0,0,9.75,5.48,16.27,16.27,0,0,0,2.11.13c5.63,0,12-2.6,19.07-7.75-12.61,17.23-7.11,25.64-5.69,27.33a14,14,0,0,0,9.89,5.23c.54,0,1.09.08,1.64.08,6.58,0,14.1-3.63,22.44-10.78-12.76,18.55-6.67,27-5.14,28.64a13.94,13.94,0,0,0,10.12,4.76c.27,0,.54,0,.82,0,4.11,0,8.54-1.47,13.25-4.38-7.05,13.78-2.3,20.3-1,21.74a13.94,13.94,0,0,0,10.12,4.76l.82,0c4.34,0,9-1.63,14-4.85a2.67,2.67,0,0,0,.34.33,42.32,42.32,0,0,0,9.89,5.43,24.51,24.51,0,0,0,8.58,1.72,14.83,14.83,0,0,0,10.7-4.25c4.72-4.62,5.73-11.25,2.9-19.18-.24-.67-.5-1.32-.76-1.94.81.25,1.66.49,2.54.7,10.8,2.6,16.33-1.38,19.06-5.17,5.08-7.07,3.11-15.71.4-21.94a34.91,34.91,0,0,0,7.65.93c4,0,8.07-.9,11.1-3.69,3.83-3.53,5.06-9.28,3.69-17.11a40,40,0,0,0,11.09,1.7,22.14,22.14,0,0,0,9.3-1.69,11.81,11.81,0,0,0,6.34-7.17c4.63-13.87-2.76-22.4-3.08-22.76l-.1-.11-5-5,18.18-23.69.06-.08A69.31,69.31,0,0,0,273,115.14C275.25,100.18,273.36,77.72,251.35,55.71ZM58,194.74a7.88,7.88,0,0,1-5.69-2.94,1.59,1.59,0,0,0-.26-.35c-.44-.67-5.78-9.93,17.2-31.32,12.5-11.64,20-13.12,24-12.31A8.06,8.06,0,0,1,98.9,152a2.44,2.44,0,0,0,1.68,1.62,1.82,1.82,0,0,1,.75,1.35c.35,2.16-.59,8.9-16.85,24.88C71.06,193,62.7,195.22,58,194.74Zm25.23,24.91a7.86,7.86,0,0,1-5.77-2.78,1.53,1.53,0,0,0-.26-.34c-.46-.66-6-9.78,16.37-31.77,12.19-12,19.63-13.63,23.71-12.93a8.1,8.1,0,0,1,5.71,4,3,3,0,0,0,1.79,1.6,2,2,0,0,1,.67,1.13c.41,1.64.44,8.31-16.16,25.49C96.23,217.6,87.93,220,83.24,219.65ZM112,242.33a7.89,7.89,0,0,1-5.89-2.52,1.52,1.52,0,0,0-.28-.33c-.49-.64-6.49-9.49,14.88-32.49,11.62-12.51,19-14.53,23.09-14a8,8,0,0,1,5.88,3.75,3,3,0,0,0,1.86,1.51,1.92,1.92,0,0,1,.73,1.1c.48,1.61.82,8.28-15,26.21C124.91,239.67,116.73,242.47,112,242.33Zm23.21,22.13a7.86,7.86,0,0,1-5.89-2.51,1.29,1.29,0,0,0-.28-.33c-.49-.64-6.48-9.49,14.89-32.49,11.62-12.51,19-14.52,23.08-14a8.07,8.07,0,0,1,5.89,3.75,3,3,0,0,0,1.86,1.51,1.92,1.92,0,0,1,.73,1.1c.48,1.62.82,8.28-15,26.21C148.12,261.81,139.91,264.61,135.23,264.46Zm39.68.1c-6.21,6.07-17-.39-20.29-2.65a91.35,91.35,0,0,0,10.43-10.26c2.61-3,4.89-5.74,6.88-8.35h0a35.48,35.48,0,0,1,4.43,8.37C178.37,257.32,177.88,261.66,174.91,264.56Zm70-89c.54.66,5.2,6.77,1.84,16.84a5.92,5.92,0,0,1-3.23,3.66c-5.26,2.53-14.81.15-18.74-1.2l-34.35-32.58a3,3,0,0,0-4.13,4.35l32.25,30.59c2.48,8.42,2.29,14.27-.59,16.94-4.25,3.92-14.15,1.4-18.22-.11l-32.37-29.77a3,3,0,0,0-4.06,4.41l30.61,28.16c1.23,1.76,9.91,14.8,4.08,22.91-6,8.36-22-.75-22.14-.84a2.75,2.75,0,0,0-.59-.25c5.38-8.08,7.37-14.32,6-18.89a7.68,7.68,0,0,0-3.61-4.63,14.19,14.19,0,0,0-9.7-5.95c-4.1-.56-8.59.55-13.43,3.31,3.49-6.16,4.65-11.09,3.52-14.87a7.62,7.62,0,0,0-3.61-4.63,14.17,14.17,0,0,0-9.7-6c-5.74-.78-12.25,1.73-19.44,7.45,5.1-7.23,7.08-13,6-17.35a7.65,7.65,0,0,0-3.4-4.79,14.11,14.11,0,0,0-9.41-6.4c-5.36-1-11.53.91-18.43,5.6,5.76-7.5,8.11-13.47,7.11-18.06a7.65,7.65,0,0,0-3.28-4.88A14.13,14.13,0,0,0,94.64,142c-7.94-1.67-17.86,2.95-29.47,13.76-1.61,1.51-3.09,3-4.47,4.37a100.63,100.63,0,0,1-21.77-30c-10.85-23.7-7.43-45.91,10.17-66C60.24,51.38,73.17,44.72,87.53,44.3c27.24-.81,52.12,21.06,57.47,26.09L93.45,120.93a3,3,0,0,0-.5,3.63c.39.7,9.92,17,29.93,19.58,18.43,2.37,39.11-7.69,61.47-29.92ZM267.06,114a64.48,64.48,0,0,1-9.4,25.11l-17.64,23-53.53-54.23a3,3,0,0,0-2.13-.89h0a3,3,0,0,0-2.14.9c-21.76,22.28-41.44,32.49-58.48,30.34-13.28-1.66-21.34-10.74-24.29-14.73l54.39-53.33a122,122,0,0,1,32.58-19.86C210.68,40.69,231.1,44,247.11,60,263.29,76.13,270,94.31,267.06,114Z"/></g></svg>