<svg xmlns="http://www.w3.org/2000/svg" viewBox="0 0 305.82 305.82"><defs><style>.cls-1{fill:#272554;}</style></defs><title>confiance_bleu</title><g id="Calque_3" data-name="Calque 3"><path class="cls-1" d="M251.53,60.76c-17.63-17.63-40.9-21.42-67.29-10.94a125.82,125.82,0,0,0-34.29,21l-.09.08-.38.38c-5.59-5.36-31.77-28.74-61.91-27.89-16.11.46-30.51,7.82-42.8,21.87-24,27.46-19.31,54.57-11.11,72.47a105,105,0,0,0,23.16,31.87c-16.67,19.23-10.74,28.84-9.27,30.68a14,14,0,0,0,9.75,5.49,18.22,18.22,0,0,0,2.1.12c5.64,0,12-2.6,19.08-7.74-12.61,17.23-7.11,25.64-5.69,27.33a14,14,0,0,0,9.89,5.23c.54.05,1.08.07,1.63.07,6.58,0,14.1-3.62,22.44-10.77-12.76,18.54-6.66,27-5.13,28.63a13.94,13.94,0,0,0,10.12,4.77l.81,0c4.12,0,8.55-1.48,13.25-4.38-7,13.77-2.3,20.3-1,21.73A13.94,13.94,0,0,0,135,275.5c.27,0,.54,0,.81,0,4.34,0,9-1.63,14-4.85a2.73,2.73,0,0,0,.35.33,41.72,41.72,0,0,0,9.88,5.43,24.56,24.56,0,0,0,8.59,1.72,14.78,14.78,0,0,0,10.69-4.25c4.73-4.62,5.73-11.25,2.9-19.18-.23-.67-.49-1.31-.76-1.94.82.26,1.67.5,2.54.71,10.81,2.6,16.34-1.38,19.07-5.18,5.08-7.07,3.11-15.7.4-21.93a35.37,35.37,0,0,0,7.64.92c4,0,8.08-.89,11.1-3.68,3.84-3.54,5.06-9.28,3.7-17.11A39.81,39.81,0,0,0,237,208.2a22.53,22.53,0,0,0,9.31-1.68,11.86,11.86,0,0,0,6.34-7.18c4.62-13.87-2.76-22.4-3.08-22.75l-.11-.12-5-5,18.18-23.7.06-.08a68.9,68.9,0,0,0,10.44-27.47C275.44,105.23,273.55,82.78,251.53,60.76ZM58.2,199.79a7.87,7.87,0,0,1-5.7-2.94,1.42,1.42,0,0,0-.25-.34c-.44-.68-5.78-9.94,17.2-31.33,12.49-11.64,20-13.12,24-12.31a8.09,8.09,0,0,1,5.6,4.17,2.45,2.45,0,0,0,1.68,1.63,1.85,1.85,0,0,1,.74,1.34c.35,2.16-.59,8.91-16.85,24.88C71.24,198.07,62.88,200.28,58.2,199.79Zm25.22,24.92a7.92,7.92,0,0,1-5.77-2.79,1.23,1.23,0,0,0-.26-.34c-.46-.66-6-9.78,16.37-31.76,12.2-12,19.63-13.63,23.72-12.93a8,8,0,0,1,5.7,4A3,3,0,0,0,125,182.5a2,2,0,0,1,.68,1.13c.4,1.64.43,8.31-16.16,25.49C96.42,222.65,88.11,225.07,83.42,224.71Zm28.79,22.67a7.91,7.91,0,0,1-5.9-2.51,1.49,1.49,0,0,0-.27-.33c-.5-.64-6.49-9.49,14.88-32.49,11.62-12.52,19-14.53,23.08-14a8.1,8.1,0,0,1,5.89,3.75,3,3,0,0,0,1.86,1.51,2,2,0,0,1,.73,1.1c.48,1.62.82,8.28-15,26.21C125.09,244.72,116.92,247.52,112.21,247.38Zm23.21,22.14a7.89,7.89,0,0,1-5.9-2.52,1.21,1.21,0,0,0-.27-.32c-.49-.64-6.49-9.49,14.88-32.49,11.62-12.51,19-14.53,23.09-14a8.06,8.06,0,0,1,5.89,3.76,3,3,0,0,0,1.86,1.51,2,2,0,0,1,.73,1.09c.47,1.62.82,8.29-15,26.21C148.3,266.86,140.1,269.67,135.42,269.52Zm39.68.09c-6.21,6.07-17-.38-20.29-2.64a93,93,0,0,0,10.43-10.26c2.6-3,4.88-5.74,6.87-8.36h0a35.85,35.85,0,0,1,4.42,8.38C178.55,262.38,178.07,266.71,175.1,269.61Zm70-89c.54.66,5.21,6.76,1.85,16.84a5.93,5.93,0,0,1-3.24,3.66c-5.25,2.52-14.8.14-18.73-1.2l-34.36-32.59a3,3,0,1,0-4.12,4.36l32.24,30.58c2.49,8.42,2.29,14.28-.59,16.94-4.24,3.92-14.14,1.41-18.22-.1l-32.36-29.78a3,3,0,0,0-4.06,4.42l30.61,28.16c1.22,1.75,9.91,14.79,4.07,22.91-6,8.36-22-.75-22.13-.84a2.43,2.43,0,0,0-.6-.26c5.39-8.08,7.37-14.32,6-18.88a7.63,7.63,0,0,0-3.62-4.63,14.14,14.14,0,0,0-9.7-6c-4.1-.56-8.59.56-13.43,3.31,3.49-6.16,4.65-11.09,3.53-14.87a7.66,7.66,0,0,0-3.62-4.63,14.14,14.14,0,0,0-9.7-6c-5.74-.78-12.25,1.73-19.43,7.44,5.1-7.23,7.08-13,6-17.35a7.64,7.64,0,0,0-3.39-4.79,14.23,14.23,0,0,0-9.42-6.4c-5.36-1-11.53.91-18.43,5.61,5.77-7.51,8.12-13.48,7.11-18.06a7.63,7.63,0,0,0-3.27-4.88A14.16,14.16,0,0,0,94.83,147c-8-1.67-17.86,3-29.47,13.77q-2.41,2.25-4.47,4.36a100.29,100.29,0,0,1-21.78-30c-10.84-23.7-7.42-45.92,10.17-66,11.15-12.73,24.08-19.4,38.43-19.82,27.25-.81,52.12,21.06,57.47,26.1L93.64,126a3,3,0,0,0-.51,3.63c.4.69,9.92,17,29.94,19.58,18.43,2.37,39.11-7.7,61.47-29.92Zm22.18-61.56a64.33,64.33,0,0,1-9.41,25.1l-17.63,23L186.68,112.9a3,3,0,0,0-2.14-.89h0a3,3,0,0,0-2.14.9c-21.77,22.28-41.44,32.49-58.48,30.35-13.28-1.67-21.35-10.75-24.3-14.74L154,75.19A122.2,122.2,0,0,1,186.6,55.34C210.87,45.75,231.29,49,247.29,65,263.47,81.18,270.18,99.37,267.25,119.05Z"/></g></svg>