<svg xmlns="http://www.w3.org/2000/svg" viewBox="0 0 621.23 181.16"><defs><style>.cls-1{fill:#f9cb5e;}</style></defs><title>crayon_jaune</title><g id="Calque_2" data-name="Calque 2"><path class="cls-1" d="M580.86,25.85H116.78A5.86,5.86,0,0,0,113.26,27L33.11,87a5.89,5.89,0,0,0,0,9.41l80.15,60a5.86,5.86,0,0,0,3.52,1.17H580.86a5.87,5.87,0,0,0,5.88-5.87v-120A5.88,5.88,0,0,0,580.86,25.85ZM46.43,91.72l72.3-54.12h45.41V145.85H118.73ZM175.89,37.6H483.23V145.85H175.89ZM575,145.85H495V37.6h80Z"/></g></svg>