<svg xmlns="http://www.w3.org/2000/svg" viewBox="0 0 305.82 305.82"><defs><style>.cls-1{fill:#272554;}</style></defs><title>entretien_bleu</title><g id="Calque_2" data-name="Calque 2"><path class="cls-1" d="M86.89,189.36H214.73a4.32,4.32,0,0,0,4.33-4.32c0-16.27-8.05-37.12-21-54.42-9.45-12.61-20.2-21.62-31-26.29a44.9,44.9,0,1,0-32.53,0C123.78,109,113,118,103.58,130.62c-13,17.3-21,38.15-21,54.42A4.32,4.32,0,0,0,86.89,189.36Zm62.84-76.81h2l8.58,37.35-9.57,8.24-9.44-8.23ZM114.56,62.49a36.25,36.25,0,1,1,36.25,36.25A36.3,36.3,0,0,1,114.56,62.49Zm-4.06,73.32c9.59-12.79,20.38-21.42,30.72-24.82l-8.93,39.53a4.33,4.33,0,0,0,1.38,4.22l14.21,12.38a4.31,4.31,0,0,0,5.66,0l14.39-12.38a4.33,4.33,0,0,0,1.4-4.25l-9.1-39.58c10.39,3.37,21.25,12,30.89,24.88,10.57,14.11,17.77,31.21,19.07,44.9H91.43C92.73,167,99.93,149.92,110.5,135.81Z"/><path class="cls-1" d="M281.13,280.3l-23-78.2A4.33,4.33,0,0,0,254,199H47.64a4.33,4.33,0,0,0-4.15,3.11l-23,78.2a4.32,4.32,0,0,0,4.15,5.55H277a4.32,4.32,0,0,0,4.15-5.55ZM30.42,277.2l20.45-69.56H250.75L271.2,277.2Z"/><path class="cls-1" d="M174,217.42a4.33,4.33,0,0,0-4.15-3.11H129.45a4.33,4.33,0,0,0-4.28,3.69l-7.09,47.57a4.33,4.33,0,0,0,4.28,5h61.5A4.32,4.32,0,0,0,188,265Zm-46.64,44.46,5.8-38.92h33.45l11.45,38.92Z"/></g></svg>