<svg xmlns="http://www.w3.org/2000/svg" viewBox="0 0 305.82 305.82"><defs><style>.cls-1{fill:#272554;}</style></defs><title>ethique_bleu</title><g id="Calque_2" data-name="Calque 2"><path class="cls-1" d="M65.5,293.28a6.86,6.86,0,0,1-1.35-.13c-3.36-.63-5.46-3.48-6.92-5.89-5.85-9.66-11.58-16.89-17.64-24.55a240.5,240.5,0,0,1-18-25l-.21-.2a3.79,3.79,0,0,1-1.17-2.75v-2.33a3.79,3.79,0,0,1,.78-2.31c3.12-4.08,7.16-6.5,11.06-8.85,1.23-.74,2.39-1.43,3.51-2.17C45.69,212.42,56,205.74,66,199.28q8.47-5.5,16.94-11a39.9,39.9,0,0,1,22.65-6.83c5.29,0,10.68,0,15.89,0,8.56,0,17.41-.08,26.14.19,6.58.2,13.29.22,19.78.23,5.33,0,10.84,0,16.28.15s10.16,2.42,14.15,6.83c3.73,4.13,5.37,8.26,4.86,12.28-.55,4.32-3.44,8.15-8.84,11.71a18,18,0,0,1-10.05,3H182c-3.77,0-7.54,0-11.31.05l-11.71.16c-8.36.12-17,.25-25.54.25h-.17V217c4.58-.15,9.19-.09,13.64,0l3.46,0c3,0,5.9,0,8.85.06,7.73,0,15.72.07,23.6.49,6.79.36,12.47-2,18.41-7.79,15.4-14.92,30.86-30.31,45.82-45.19l11.53-11.48c8-8,15.74-7.24,20.77-5.2h0a17.11,17.11,0,0,1,10.49,12.17,16.74,16.74,0,0,1-4.12,15.17c-11.27,12.31-22.51,25-33.38,37.36q-6,6.83-12.05,13.63-4,4.48-7.9,9c-4.66,5.3-9.47,10.79-14.31,16.11-5.43,6-12.85,9.28-22.07,9.84-7.42.44-15,.78-22.26,1.11-5.65.25-11.31.51-17,.81-5.38.29-10.85.52-16.13.74-7.46.32-15.18.64-22.73,1.14-9,.58-17.58,4-25.62,10.26-4,3.13-8.13,6.22-12.21,9.31l-7.48,5.68C70.74,291.7,68.28,293.28,65.5,293.28ZM28.05,233.6c5.8,9.57,11.5,16.76,17.52,24.38a236.38,236.38,0,0,1,18.18,25.33,7.59,7.59,0,0,0,1.82,2.33A7.39,7.39,0,0,0,68,284.19l7.51-5.7c4.06-3.07,8.12-6.14,12.14-9.26,9.27-7.17,19.3-11.15,29.8-11.84,7.63-.5,15.39-.83,22.9-1.14,5.26-.23,10.7-.45,16-.74,5.68-.31,11.35-.56,17-.82,7.26-.32,14.78-.66,22.15-1.1s12.78-2.84,16.88-7.36c4.79-5.27,9.58-10.73,14.21-16,2.64-3,5.28-6,7.93-9l12-13.62c10.9-12.35,22.16-25.11,33.48-37.47a9.22,9.22,0,0,0,2.31-8.35A9.62,9.62,0,0,0,276.5,155c-2.73-1.11-7-1.94-12.52,3.55L252.45,170c-15,14.9-30.46,30.31-45.9,45.26-7.49,7.26-15.17,10.42-24.11,9.93-7.7-.41-15.6-.44-23.24-.47l-8.9-.06-3.48-.05c-4.54-.07-9.24-.14-13.81,0a7.08,7.08,0,0,1-5.38-1.74c-1.94-1.86-1.95-4.39-2-6.06v-.27c0-1.53,0-4.09,1.85-6a7.2,7.2,0,0,1,5.31-1.9h0c8.69,0,17.51-.13,26-.25l11.74-.16c3.79,0,7.59-.05,11.38-.05h1.76a10.38,10.38,0,0,0,5.86-1.76c2.33-1.53,5.17-3.88,5.48-6.31.21-1.71-.78-3.8-3-6.21-2.6-2.87-5.35-4.25-8.66-4.32-5.37-.11-10.85-.13-16.14-.14-6.54,0-13.31,0-20-.24-8.6-.27-17.38-.23-25.88-.19-5.24,0-10.65.05-16,0h-.3a32.36,32.36,0,0,0-18.13,5.6q-8.46,5.52-17,11c-10,6.46-20.26,13.13-30.32,19.78-1.26.84-2.55,1.61-3.79,2.36A35.6,35.6,0,0,0,28.05,233.6Zm-6.66,3.73h0ZM132.27,217Z"/><path class="cls-1" d="M155.41,146l-.49,0c-3-.21-5.19-2.13-7.16-3.83-.51-.44-1-.88-1.52-1.26-15.09-11.35-32.33-25.42-45.76-43.66-8.19-11.11-13-21.29-15.13-32a36.76,36.76,0,0,1-.52-6.92c0-1.08,0-2.2-.09-3.36V54.8a48.42,48.42,0,0,1,1.11-11.54A41.39,41.39,0,0,1,96.54,23.4c7.55-7.9,17.53-11.11,30.49-9.82,9.5.95,17.48,5.51,24.4,14,.39.48.82.92,1.25,1.36l.63.67c1.22,1.31,1.78,1.44,1.81,1.45a3.4,3.4,0,0,0,1-.65,11.87,11.87,0,0,0,1-.94c.55-.56,1.1-1.14,1.64-1.71a87.12,87.12,0,0,1,7.48-7.24c9.09-7.53,19.72-7.58,26.92-6.95,19,1.64,29.85,18.24,32.14,34s-2,30.66-13.65,47.24C198,114.23,180,129,164.07,140.91a20,20,0,0,0-1.54,1.35C160.72,143.94,158.48,146,155.41,146Zm-.23-7.6ZM92.36,54.58c.07,1.28.08,2.48.09,3.64a30.37,30.37,0,0,0,.38,5.51c1.9,9.61,6.28,18.82,13.78,29,12.86,17.45,29.57,31.07,44.21,42.09.64.48,1.28,1,1.93,1.58a14.09,14.09,0,0,0,2.58,1.95,13.91,13.91,0,0,0,2-1.67c.69-.63,1.39-1.29,2.17-1.88,15.4-11.52,32.9-25.82,45.92-44.44h0c10.56-15.09,14.37-28,12.36-41.77C215,29.68,202.45,22,192.53,21.11c-9.46-.81-16.06.8-21.41,5.23A81.31,81.31,0,0,0,164.3,33l-1.68,1.75A20.59,20.59,0,0,1,161,36.25c-3.06,2.51-7.83,4.3-13.24-1.48l-.56-.6c-.54-.56-1.1-1.14-1.65-1.81C140,25.57,133.66,21.9,126.27,21.17,115.64,20.11,108,22.49,102,28.67a33.89,33.89,0,0,0-8.75,16.25A40.57,40.57,0,0,0,92.36,54.58Z"/></g></svg>