<svg xmlns="http://www.w3.org/2000/svg" viewBox="0 0 305.82 305.82"><defs><style>.cls-1{fill:#f4c542;}</style></defs><title>étoiles</title><g id="Calque_2" data-name="Calque 2"><path class="cls-1" d="M79.65,276.74A8.75,8.75,0,0,1,71.3,265.4l26.49-85L22.37,128.68a8.75,8.75,0,0,1,4.94-16h89.55l29.21-80.94a8.75,8.75,0,0,1,16.54.24l26.54,80.71H277a8.75,8.75,0,0,1,5.1,15.85l-71.76,51.55,28.59,85.09a8.75,8.75,0,0,1-13.44,9.85l-71.14-51.87L84.87,275A8.73,8.73,0,0,1,79.65,276.74ZM55.55,130.21,113,169.58a8.74,8.74,0,0,1,3.41,9.82L96,244.89l53.07-39.57a8.75,8.75,0,0,1,10.38-.06l54.16,39.49-21.9-65.18a8.75,8.75,0,0,1,3.19-9.89l54.94-39.47h-67a8.74,8.74,0,0,1-8.31-6L153.92,61.58l-22.68,62.86a8.75,8.75,0,0,1-8.23,5.78Z"/></g></svg>