<svg xmlns="http://www.w3.org/2000/svg" viewBox="0 0 305.82 305.82"><defs><style>.cls-1{fill:#f7cb5d;}</style></defs><title>innovation_jaune</title><g id="Calque_3" data-name="Calque 3"><path class="cls-1" d="M259.37,109.39l-10.47-6.56c.1-1.42.17-2.84.17-4.25,0-.94,0-1.89-.08-2.84l10.83-6.38a2.49,2.49,0,0,0,1.11-2.92l-5.36-16.51A2.5,2.5,0,0,0,253,68.21l-12.33.84a58,58,0,0,0-4.09-5.78l5-11.53a2.51,2.51,0,0,0-.83-3l-14-10.19a2.49,2.49,0,0,0-3.08.1l-9.47,7.92a57.14,57.14,0,0,0-6.72-2.28L204.76,32a2.5,2.5,0,0,0-2.44-1.95H185A2.5,2.5,0,0,0,182.54,32l-3,12A57,57,0,0,0,172.76,46l-9.41-8.32a2.49,2.49,0,0,0-3.12-.15l-14,10.2a2.63,2.63,0,0,0-.45.43,79.87,79.87,0,0,0-22.18-4h-.24C94.19,45.31,68.84,61.89,57.17,87.43c-10.12,22.17-7.64,46.07,6.63,63.92,29.25,36.55,25.18,62.75,25.14,63a3,3,0,0,0,3,3.53h1.64a2.71,2.71,0,0,0,0,.41v9.29l-1.62.07a3,3,0,0,0,.13,6h.12l1.37,0V238l-1.67.1a3,3,0,0,0,.18,6h.18l1.31-.08v3.82h-.12a3,3,0,0,0,.12,6v6a3,3,0,0,0,3,3h54.3a3,3,0,0,0,3-3v-8.54l1.62-.07a3,3,0,1,0-.25-6l-1.37.06v-4.83l1.67-.1a3,3,0,0,0-.35-6l-1.32.08v-3.38l1.62-.07a3,3,0,0,0,2.87-3.12,3,3,0,0,0-3.12-2.87l-1.37.05v-6.79a2.71,2.71,0,0,0,0-.41H155a3,3,0,0,0,2.94-3.59c0-.06-1.17-6.3,1.14-16.87,2-9.2,7.11-23.54,19.92-40.79l1.89,8.52a2.51,2.51,0,0,0,2.45,2h17.35a2.5,2.5,0,0,0,2.42-1.89l3-12a55.41,55.41,0,0,0,6.78-2.11l9.4,8.32a2.48,2.48,0,0,0,1.66.63,2.51,2.51,0,0,0,1.47-.48l14-10.2a2.51,2.51,0,0,0,.85-3L235.69,135a57.5,57.5,0,0,0,4.25-5.68l12.5,1.21h.24a2.5,2.5,0,0,0,2.38-1.73l5.36-16.5A2.51,2.51,0,0,0,259.37,109.39ZM147.79,256.85H99.49v-3.23l48.3-2.05Zm0-11.29-48.3,2.05v-3.92l48.3-2.85Zm0-10.73-48.3,2.85v-4.34l48.3-2Zm0-16.54v7l-48.3,2v-9a2.71,2.71,0,0,0,0-.41h48.38A2.71,2.71,0,0,0,147.79,218.29Zm3.87-6.41H95.16c.32-8.76-1.56-32.9-26.67-64.28-12.83-16-15-37.61-5.86-57.68,10.71-23.44,34-38.66,60.81-39.75a72.73,72.73,0,0,1,23.64,4.88L150,62.18a55.88,55.88,0,0,0-4.24,5.68l-12.51-1.2a2.51,2.51,0,0,0-2.62,1.71l-5.36,16.51a2.51,2.51,0,0,0,1,2.89l10.48,6.57c-.11,1.41-.18,2.83-.18,4.24,0,.94,0,1.89.08,2.84l-10.83,6.38a2.5,2.5,0,0,0-1.11,2.93l5.37,16.5a2.5,2.5,0,0,0,2.37,1.73h.17l12.33-.84a55.44,55.44,0,0,0,4.1,5.78l-5,11.53a2.5,2.5,0,0,0,.82,3l14,10.2a2.48,2.48,0,0,0,3.07-.11l9.47-7.92c1.17.49,2.36.93,3.57,1.33C152.76,181.36,151.24,203.52,151.66,211.88Zm99.26-86.54-12-1.16h-.15a2.43,2.43,0,0,0-.27,0l-.28,0-.19,0-.28.09-.17.08-.24.13-.19.13-.17.15c-.06.06-.13.12-.19.19l-.12.16-.13.17a51.39,51.39,0,0,1-5.58,7.48,1.35,1.35,0,0,0-.2.27h0a2.32,2.32,0,0,0-.22.41h0a3.09,3.09,0,0,0-.14.43v0a2,2,0,0,0-.05.42s0,0,0,.07a2.71,2.71,0,0,0,0,.4.28.28,0,0,0,0,.09,3,3,0,0,0,.12.4.13.13,0,0,0,0,.06l0,.08s0,0,0,.05l4.39,10.92-10.84,7.88-9-8-.15-.11-.19-.13-.25-.13-.18-.09-.27-.08-.2,0a1.24,1.24,0,0,0-.27,0h-.21l-.27,0-.21,0a1.61,1.61,0,0,0-.29.09l-.13,0a49.7,49.7,0,0,1-8.91,2.77l-.16.06-.24.07-.23.11-.19.11-.21.15-.17.15-.17.18-.15.19a2.39,2.39,0,0,0-.13.21,2.12,2.12,0,0,1-.11.21l-.09.25s0,.1-.05.15l-2.9,11.56h-13.4l-2.61-11.79a.78.78,0,0,1-.05-.14c0-.09,0-.18-.09-.27a2,2,0,0,0-.1-.21l-.12-.21-.15-.19a1.46,1.46,0,0,0-.16-.19l-.17-.15a1.56,1.56,0,0,0-.2-.16l-.2-.12a1.51,1.51,0,0,0-.22-.11l-.26-.09-.14,0-.52-.13a51.09,51.09,0,0,1-8.32-2.86l-.11,0-.31-.1-.18,0-.3,0h-.19l-.29,0-.18,0-.29.08-.17.07-.26.13-.18.12-.16.11-9.14,7.65-10.84-7.88,4.76-10.94,0-.06,0-.07a.43.43,0,0,1,0-.05,2.16,2.16,0,0,0,.13-.41.17.17,0,0,0,0-.07,2,2,0,0,0,.05-.43v0a2.28,2.28,0,0,0,0-.45h0a2.52,2.52,0,0,0-.55-1.17,52.44,52.44,0,0,1-5.4-7.61.6.6,0,0,0-.09-.13l-.15-.21a1.49,1.49,0,0,0-.17-.18l-.17-.16a1.07,1.07,0,0,0-.22-.15l-.17-.11-.26-.12-.18-.07-.3-.07-.17,0h-.45l-11.89.81-4.14-12.74L140.38,105h0l.11-.06.08,0,.3-.22.09-.09a2.91,2.91,0,0,0,.24-.27l.07-.09c.07-.11.14-.22.2-.33l0-.07c.05-.13.1-.26.14-.39s0,0,0-.06a2.7,2.7,0,0,0,.07-.41v-.07c0-.1,0-.2,0-.3-.1-1.34-.15-2.69-.15-4a52.3,52.3,0,0,1,.27-5.31,2.43,2.43,0,0,0,0-.27v-.1a1.74,1.74,0,0,0-.05-.39.24.24,0,0,0,0-.08,2.29,2.29,0,0,0-.12-.37.36.36,0,0,0,0-.09,2,2,0,0,0-.18-.32.36.36,0,0,0-.07-.1,1.49,1.49,0,0,0-.23-.27l-.09-.1a3.15,3.15,0,0,0-.29-.22l-.08-.06-10.09-6.33,4.14-12.74,12,1.15h.13l.11,0,.13,0a1.86,1.86,0,0,0,.33,0l.23,0a1.51,1.51,0,0,0,.35-.14,3,3,0,0,0,.35-.19l.23-.17.21-.21A2.11,2.11,0,0,0,149,72s.08-.09.11-.14a51.64,51.64,0,0,1,5.59-7.48l.19-.27,0,0a3,3,0,0,0,.21-.4v0a3.45,3.45,0,0,0,.14-.42.11.11,0,0,1,0-.05,1.81,1.81,0,0,0,0-.4.28.28,0,0,0,0-.09,2.34,2.34,0,0,0,0-.38s0-.08,0-.12a1.65,1.65,0,0,0-.11-.36.29.29,0,0,0,0-.09l-.05-.11h0l-3.43-8.53a3,3,0,0,0-.71-2.59l10.58-7.68,9.05,8,.21.15.11.08a2.73,2.73,0,0,0,.6.28h.06a2.49,2.49,0,0,0,.6.09h.13l.3,0,.17,0,.32-.1.11,0a51.37,51.37,0,0,1,8.91-2.77l.13,0,.28-.09.2-.1.23-.12.18-.14.19-.16.16-.17.16-.2.12-.2a1.51,1.51,0,0,0,.11-.22,1.84,1.84,0,0,0,.09-.25.66.66,0,0,0,0-.15l2.91-11.55h13.39l2.62,11.78A1.06,1.06,0,0,0,203,47c0,.06,0,.13,0,.19a3,3,0,0,0,.16.31l0,.09c.09.13.18.25.28.37l.06.06.27.24.14.09.25.15.16.07.29.1a.29.29,0,0,0,.1,0,51,51,0,0,1,8.83,3l.1,0,.34.11.18,0a1.63,1.63,0,0,0,.31,0h.16a2.28,2.28,0,0,0,.63-.09h0a2.58,2.58,0,0,0,.59-.26l.13-.09.18-.13,9.14-7.64,10.84,7.87-4.76,10.95s0,0,0,.06l0,.06s0,0,0,.06a2.8,2.8,0,0,0-.13.41s0,0,0,.06a3.15,3.15,0,0,0-.05.43v0a3.73,3.73,0,0,0,0,.46h0a2.53,2.53,0,0,0,.55,1.17,52,52,0,0,1,5.4,7.62.7.7,0,0,0,.08.1,2.51,2.51,0,0,0,.25.32l.15.16a3,3,0,0,0,.4.3l.19.1a2.39,2.39,0,0,0,.37.15l.22,0,.36,0h.32l11.88-.82,4.14,12.75-10.28,6,0,0-.08,0-.05,0a2.85,2.85,0,0,0-.33.25l-.07.06a1.93,1.93,0,0,0-.27.3l0,.06a2.16,2.16,0,0,0-.22.36s0,0,0,0a2.86,2.86,0,0,0-.15.41v0a2.12,2.12,0,0,0-.07.45v0a1.71,1.71,0,0,0,0,.32c.1,1.34.15,2.69.15,4a50.79,50.79,0,0,1-.26,5.24,1.77,1.77,0,0,0,0,.23,1.22,1.22,0,0,0,0,.27v0a2.5,2.5,0,0,0,1.16,1.9l10.09,6.34Z"/><path class="cls-1" d="M190.75,72.75a26.27,26.27,0,0,0-11.26,2.51,26.47,26.47,0,0,0,11.26,50.42c.54,0,1.09,0,1.62-.05a26.46,26.46,0,0,0-1.62-52.88Zm1.32,47.89c-.44,0-.88,0-1.32,0a21.46,21.46,0,0,1-9.13-40.89,21.22,21.22,0,0,1,9.13-2,21.47,21.47,0,0,1,1.32,42.89Z"/><path class="cls-1" d="M140.5,267.22H106.38a3,3,0,0,0-2.88,3.83l3.1,10.78a3,3,0,0,0,2.88,2.17h27.14a3,3,0,0,0,2.83-2l3.87-10.79a3,3,0,0,0-2.82-4Zm-6,10.78H111.74l-1.37-4.78h25.86Z"/></g></svg>