<svg xmlns="http://www.w3.org/2000/svg" viewBox="0 0 305.82 305.82"><defs><style>.cls-1{fill:#f9cb5e;}</style></defs><title>linkedin_jaune</title><g id="Calque_2" data-name="Calque 2"><path class="cls-1" d="M242.94,247.71H202.85a3.75,3.75,0,0,1-3.74-3.75v-64.5c0-15.83-5.41-23.52-16.56-23.52-10.94,0-15.6,8.61-17.09,12.32-.71,1.74-1.05,4.47-1.05,8.37V244a3.75,3.75,0,0,1-3.75,3.75H120.58a3.76,3.76,0,0,1-3.75-3.77c0-1.09.53-109.28,0-120.36a3.74,3.74,0,0,1,3.74-3.92h40.08a3.74,3.74,0,0,1,3.75,3.74v6.27c6.62-6.81,16.57-12.85,32.38-12.85,31.24,0,49.89,21.69,49.89,58V244A3.74,3.74,0,0,1,242.94,247.71Zm-36.34-7.49h32.6v-65.4c0-32.1-15.46-50.51-42.41-50.51-18.19,0-26.95,9.17-32.49,17.46a3.75,3.75,0,0,1-3.64,2.85h-.26a3.74,3.74,0,0,1-3.48-5.13V127.14h-32.5c.32,20,0,95.05-.08,113.08h32.58V176.63c0-5,.51-8.51,1.61-11.19,4.28-10.63,13.26-17,24-17,9,0,24,4,24,31ZM98.41,247.71H58.34A3.75,3.75,0,0,1,54.59,244V123.4a3.74,3.74,0,0,1,3.75-3.74H98.41a3.73,3.73,0,0,1,3.74,3.74V244A3.74,3.74,0,0,1,98.41,247.71Zm-36.33-7.49H94.67V127.14H62.08ZM79,106.87a24.38,24.38,0,1,1,24.38-24.38A24.41,24.41,0,0,1,79,106.87ZM79,65.6A16.89,16.89,0,1,0,95.86,82.49,16.91,16.91,0,0,0,79,65.6Z"/></g></svg>