<svg id="Calque_1" data-name="Calque 1" xmlns="http://www.w3.org/2000/svg" viewBox="0 0 305.82 305.82"><defs><style>.cls-1{fill:#fdc443;}</style></defs><title>mon-espace_jaune</title><path class="cls-1" d="M224.8,196.05c-16.18-21.58-34.74-36.46-53-43a69.27,69.27,0,1,0-40.64,0c-18.3,6.51-36.86,21.39-53,43-20.32,27.11-32.94,59.73-32.94,85.13a4.92,4.92,0,0,0,4.92,4.92H252.81a4.93,4.93,0,0,0,4.93-4.92C257.74,255.78,245.11,223.16,224.8,196.05ZM92,86.86a59.42,59.42,0,1,1,59.42,59.41A59.49,59.49,0,0,1,92,86.86ZM55.17,276.25c3.17-49,52.14-117,96.28-117s93.1,68,96.27,117Z"/></svg>